<svg id="Lag_1" data-name="Lag 1" xmlns="http://www.w3.org/2000/svg" viewBox="0 0 233.47 73.73"><defs><style>.cls-1{fill:#29abe2;}</style></defs><title>nisseven</title><path class="cls-1" d="M9.73,72.15c0-.19.08-.3.25-.32s.3.11.32.32-.11.25-.32.25A.22.22,0,0,1,9.73,72.15ZM10.42,41c0-.17.09-.25.26-.25s.22.08.22.25-.07.2-.22.22A.24.24,0,0,1,10.42,41Zm4,16.16c0-.09,0-.13.13-.13s.16,0,.16.13-.06.12-.16.12S14.39,57.19,14.39,57.11ZM29.34,36l14.5,13.49v-7L40.26,45l3.58-2.67V36.06l-5-1.58,5,1.39v-4.7h2.67l-1.08-2,1.18,2h4.12v5.37l5.08-9.43-5,10.13.06.06,4.76-3L51,37.46a.35.35,0,0,0,.06.09l10.63-1.3L51.14,37.94v.15l6.67,1.69-6.76-1.46,8.51,8.38L50.8,38.57l-.07,0V39l2.35,5.21-2.35-4.8V65.17L30.93,46.76v13a.83.83,0,0,1,.19.51.7.7,0,0,1-.19.54v4.38H24.14V39.78L22,43.87l2.19-5.24-6,3.91,5.62-3.91L15,39.87l8.69-1.49-6.79-2.63,7.21,2.19v-.16l-2.77-5,2.7,4.51-.73-4.89.48,1.87h.06c.09,0,.13.06.13.16s0,.13-.13.13l.26,1V31.17l3.39,3.15L30,31l-2.38,3.42L29.28,36l2.22-1ZM15.79,54v0q0-.12.09-.12c.09,0,.13,0,.13.15v0a.08.08,0,0,1-.09.09C15.83,54.12,15.79,54.08,15.79,54ZM18,62.66h-.07c-.4,0-.61-.21-.63-.64s.22-.69.66-.69.7.22.7.66A.59.59,0,0,1,18,62.66Zm.66,4.66c0-.19.09-.28.26-.28s.31.09.31.28-.09.29-.28.29A.25.25,0,0,1,18.61,67.32ZM23,36.57a.12.12,0,0,1,.13-.13c.1,0,.16.05.16.13s-.06.13-.16.13S23,36.66,23,36.57Zm.29,8.7V45.2c0-.21.12-.33.38-.38a.37.37,0,0,1,.41.41c0,.3-.14.45-.41.45S23.25,45.54,23.25,45.27Zm.25-13.05c0-.08,0-.12.13-.12s.16,0,.16.12a.14.14,0,0,1-.16.16C23.54,32.38,23.5,32.33,23.5,32.22ZM27,72.28h-.06c-.11,0-.16-.07-.16-.19s.07-.26.22-.26.26.08.26.22S27.16,72.28,27,72.28ZM27.34,29a.3.3,0,0,1,.29-.34A.31.31,0,0,1,28,29a.31.31,0,0,1-.32.35C27.45,29.33,27.34,29.22,27.34,29Zm1.91-1.68c-.09,0-.13,0-.13-.12s0-.1.13-.1.09,0,.09.1S29.31,27.3,29.25,27.3Zm2.12,44.85h-.06a.32.32,0,0,1-.35-.32v-.06c0-.17.1-.29.32-.35h.06c.17,0,.29.1.35.32v.06A.32.32,0,0,1,31.37,72.15Zm1.11-1.59h0c-.06,0-.11,0-.13-.16v-.06c0-.06,0-.1.13-.1h.06c.07,0,.11.05.13.13S32.59,70.56,32.48,70.56Zm-.06-19c0-.17.07-.26.22-.28s.29.09.29.28-.08.29-.23.29S32.42,51.77,32.42,51.58Zm1.17-1.36v0c0,.08,0,.13-.09.13s-.13-.06-.13-.16v0c0-.07,0-.1.1-.1S33.59,50.13,33.59,50.22Zm.48-13.49H34c-.38,0-.59-.21-.61-.64a.59.59,0,0,1,.67-.66.61.61,0,0,1,.7.63C34.77,36.51,34.53,36.73,34.07,36.73Zm3.71,18.88c0,.09,0,.13-.12.13s-.13,0-.13-.13,0-.12.13-.12A.11.11,0,0,1,37.78,55.61Zm.1,10.26h.06c.13,0,.2.08.22.25v0c0,.13-.07.2-.22.22h-.06a.23.23,0,0,1-.26-.19A.27.27,0,0,1,37.88,65.87Zm1.52,7.67a1.07,1.07,0,0,1-.38-.72,1,1,0,0,1,.35-.7.9.9,0,0,1,1.46-.07,1.06,1.06,0,0,1,.35.73,1.15,1.15,0,0,1-.32.73,1.1,1.1,0,0,1-.76.35A1.12,1.12,0,0,1,39.4,73.54Zm0-18.24c0-.17.07-.26.22-.26s.29.08.29.22-.09.29-.26.29A.22.22,0,0,1,39.37,55.3Zm.48.82c0-.08,0-.13.12-.13a.12.12,0,0,1,.13.13c0,.09,0,.13-.13.13S39.85,56.21,39.85,56.12Zm.79-30.72c0-.17.09-.26.28-.26s.29.09.29.26-.08.32-.25.32A.28.28,0,0,1,40.64,25.4Zm1.9,39.1c0-.15.09-.23.26-.25s.22.08.22.25a.19.19,0,0,1-.22.22C42.63,64.72,42.54,64.65,42.54,64.5Zm1.15-49.35a.56.56,0,0,1-.38-.19.49.49,0,0,1-.16-.35.51.51,0,0,1,.19-.35.5.5,0,0,1,.35-.19.55.55,0,0,1,.38.19.67.67,0,0,1,.12.35.53.53,0,0,1-.5.54Zm1.84,10.57c0-.22.08-.32.25-.32s.32.09.32.28a.28.28,0,0,1-.32.32C45.61,26,45.53,25.91,45.53,25.72Zm4,42.81h-.06c-.13,0-.19-.07-.19-.22s.08-.22.25-.22.23.06.23.19S49.64,68.53,49.49,68.53Zm.39-46.08a.26.26,0,0,1,0-.1c0-.17.12-.25.25-.25h.13c.19,0,.28.14.28.28a.13.13,0,0,1,0,.1.28.28,0,0,1-.28.25h-.13C50,22.69,49.88,22.6,49.88,22.45ZM50.19,21v0a.09.09,0,0,1,.07,0h0a0,0,0,0,1,0,0v0s0,.06,0,.06h0S50.19,21,50.19,21Zm1,.22h.07c.06,0,.09.05.09.1v.06a.12.12,0,0,1-.12.09h0q-.09,0-.09-.09v-.06C51.07,21.27,51.1,21.24,51.14,21.24Zm.26-.16s0,0,0-.06v0s0,0,.06,0a.05.05,0,0,1,.06.06v0A.12.12,0,0,1,51.4,21.08Zm.79.16a.32.32,0,0,1-.32-.35.29.29,0,0,1,.32-.32c.23,0,.35.11.35.32A.31.31,0,0,1,52.19,21.24Zm1.59-3.93v.06s0,.06-.1.06h0q-.09,0-.09-.09v0c0-.07,0-.1.09-.1h0C53.75,17.23,53.78,17.26,53.78,17.31Zm1.78,32.56h-.13c-.19,0-.3-.12-.32-.35v-.1c0-.17.11-.27.32-.31h.06a.35.35,0,0,1,.38.31v.07C55.87,49.72,55.77,49.85,55.56,49.87Zm0-29a.61.61,0,0,1,.66-.67c.43,0,.65.22.67.67a.62.62,0,0,1-.67.7C55.83,21.53,55.61,21.29,55.59,20.83ZM68.92,45.49a.28.28,0,0,1,.32-.32h.06c.17,0,.26.11.28.32s-.11.32-.34.32A.28.28,0,0,1,68.92,45.49Z" transform="translate(-9.73 -7.78)"/><path class="cls-1" d="M53.4,57.61V32.29a.31.31,0,0,1-.35-.35v-.07c0-.19.12-.29.35-.31v-.39h6.79v5.91h.1c.06,0,.09,0,.09.13v.09c0,.06,0,.1-.13.1h-.06V59.29l3-6.09-3,6.7v.92L72.25,49.65,61.4,60.34a.64.64,0,0,1,.44.64V61l8-1.75-8,2a.65.65,0,0,1-.64.31h-.06a.76.76,0,0,1-.32-.06l-.28.06a1,1,0,0,1,0,.23L75.2,64.21,60.38,62.37a.35.35,0,0,1-.09.16L66.76,67l-6.57-4.16v.28l.51,1.05h.12c.07,0,.1,0,.1.1s0,.12-.1.12L67,77,60.19,64.31v.86h-.95l0,6-.19-6H57.78l-5.24,9,4.76-9H55.43l-3.84,3.2,3.59-3.2H53.4v-1.3L43.31,66.69,53.4,63.52V61.26l-3.81-.54,3.81.42V58l-8.1-6ZM45.91,70V69.9c0-.41.21-.61.63-.61h.1c.4,0,.6.21.6.64s-.21.7-.63.7h-.1C46.11,70.63,45.91,70.41,45.91,70Zm1.14-37.77a.62.62,0,0,1,.7.67c0,.42-.23.64-.7.67s-.64-.23-.67-.67A.62.62,0,0,1,47.05,32.22Zm1.05-.57a.19.19,0,0,1,.12.16v0a.14.14,0,0,1-.15.13h0a.13.13,0,0,1-.09-.13v-.06c0-.09.06-.13.13-.13Zm1.46,6.22a.57.57,0,0,1,.32.48.87.87,0,0,1-.1.32.54.54,0,0,1-.44.31,1.08,1.08,0,0,1-.39-.09.54.54,0,0,1-.28-.45,1.08,1.08,0,0,1,.09-.38.56.56,0,0,1,.48-.28A.78.78,0,0,1,49.56,37.87Zm.32,7.36h.06c.13,0,.19.08.19.23s-.09.22-.25.22-.23-.06-.23-.19S49.73,45.23,49.88,45.23Zm.79,36c0,.19-.09.28-.26.28s-.31-.08-.31-.25a.28.28,0,0,1,.31-.32C50.58,80.94,50.67,81,50.67,81.23Zm.95-46.12s.06,0,.06.06a.21.21,0,0,1-.06.16.09.09,0,0,1-.09.07.08.08,0,0,1-.07,0s-.06-.07-.06-.09a.21.21,0,0,1,0-.13.1.1,0,0,1,.1-.06Zm1.17,36a.45.45,0,0,1,.16.32.56.56,0,0,1-.12.32.52.52,0,0,1-.35.15.5.5,0,0,1-.29-.12.46.46,0,0,1-.19-.35.67.67,0,0,1,.48-.48A.37.37,0,0,1,52.79,71.07Zm.93-43h.06a.3.3,0,0,1,.32.29v.06c0,.19-.11.3-.32.32h-.1c-.14,0-.23-.1-.25-.32v-.09C53.43,28.17,53.52,28.09,53.72,28.06Zm1.8,52.12v.06c0,.38-.22.58-.66.61a.67.67,0,0,1,0-1.34A.6.6,0,0,1,55.52,80.18ZM60,73a1,1,0,0,1,.35.7,1.15,1.15,0,0,1-1.08,1.08,1.12,1.12,0,0,1-.7-.32,1,1,0,0,1-.38-.73,1.08,1.08,0,0,1,.35-.69,1,1,0,0,1,.73-.38A1.11,1.11,0,0,1,60,73Zm.54-11.64a.15.15,0,0,1,0-.1l-.13.13Zm.79-36h.16q.51,0,.57.57V26c0,.34-.19.54-.57.61h-.16c-.34,0-.54-.2-.6-.61v-.16Q60.73,25.38,61.33,25.3Zm.16,22.6h-.06c-.13,0-.2-.08-.22-.25v0a.22.22,0,0,1,.22-.23h.06a.24.24,0,0,1,.26.19A.28.28,0,0,1,61.49,47.9ZM62,64.75c0,.17-.08.26-.22.26a.2.2,0,0,1-.23-.22.21.21,0,0,1,.23-.23A.21.21,0,0,1,62,64.75Zm-.41-6.6a.11.11,0,0,1,.12-.12c.09,0,.13,0,.13.12s0,.13-.13.13S61.59,58.24,61.59,58.15ZM64,36.67c0,.12,0,.19-.16.19h-.06c-.09,0-.13-.06-.13-.16v-.07c0-.06.05-.1.16-.12A.18.18,0,0,1,64,36.67Zm.44-1.59h.07a.34.34,0,0,1,.38.35v.09c0,.21-.12.33-.35.35h-.1c-.19,0-.3-.11-.35-.35v-.06A.37.37,0,0,1,64.44,35.08Zm.86,42h.06c.38,0,.58.21.61.63a.59.59,0,0,1-.67.67.61.61,0,0,1-.7-.64C64.6,77.26,64.83,77,65.3,77Zm.48-13.49v0c0-.09,0-.13.09-.13s.13,0,.13.16v0c0,.06,0,.09-.1.09A.11.11,0,0,1,65.78,63.55ZM67,62.18c0,.17-.07.27-.22.29a.26.26,0,0,1-.29-.29c0-.19.08-.28.22-.28S67,62,67,62.18Zm-.06-19h0c.06,0,.1.06.13.16v.07c0,.06,0,.09-.13.09h-.07c-.06,0-.1,0-.12-.13S66.78,43.2,66.89,43.2ZM68,41.62h.06a.31.31,0,0,1,.35.31V42c0,.17-.11.28-.32.35H68c-.17,0-.29-.11-.35-.32V42A.31.31,0,0,1,68,41.62ZM68.19,43h.12c.2,0,.3.12.32.35v.1c0,.17-.1.27-.32.32h-.06a.36.36,0,0,1-.38-.32v-.07A.33.33,0,0,1,68.19,43Z" transform="translate(-9.73 -7.78)"/><path class="cls-1" d="M47.4,38.57a.61.61,0,0,1,.67-.67c.42,0,.64.23.66.67a.62.62,0,0,1-.66.7C47.64,39.27,47.42,39,47.4,38.57Zm4.73,21.77c0-.19.08-.29.25-.31a.3.3,0,0,1,.32.31c0,.17-.11.26-.32.26S52.13,60.51,52.13,60.34Zm.7-31.2a.22.22,0,0,1,.25-.25c.15,0,.22.08.22.25s-.07.2-.22.23A.23.23,0,0,1,52.83,29.14ZM78.12,65.26l4.54,4.48L78,65.42a.11.11,0,0,1-.07,0,.18.18,0,0,1-.19-.16V65.2l-.12-.13c-.62.06-1.26.1-1.94.1s-1.3,0-1.94-.07l.64,1.37-.67-1.37A28,28,0,0,1,71,64.72l-.16,8-.16-8a21.07,21.07,0,0,1-4.44-1.49,10.28,10.28,0,0,1-1-.54l-7.08,4.89,6.8-5a11.73,11.73,0,0,1-2.26-1.59l1.46-1.52L62,59.58l2.19-.32.82-.85,1-1.21-4.57-1.43a.38.38,0,0,1-.16,0c-.15,0-.23,0-.25-.16l-4.86-1.52L61,55.46a.23.23,0,0,1,.25-.23c.21,0,.32.1.32.29v.09L66.28,57l1-1.11a4.23,4.23,0,0,0,1,.69L63.78,52.6,69,57l.07,0a6.26,6.26,0,0,0,.89.38L64.67,47.3l5.83,10,.23-6.45a10.8,10.8,0,0,1-5.46-3.39,8.51,8.51,0,0,1-2.38-6A9.15,9.15,0,0,1,63,40.25a9.54,9.54,0,0,1,4-6.6,14.85,14.85,0,0,1,8.7-2.48,22.26,22.26,0,0,1,9.52,2,14.37,14.37,0,0,1,3.59,2.32l-4.67,4.95c0-.12-.61-.49-1.84-1.11A15.42,15.42,0,0,0,75.71,38c-3.72,0-5.71,1-6,3.11v.44A2.12,2.12,0,0,0,70.31,43q1.56,1.76,5.4,1.75c.72,0,1.42,0,2.09.09a12.44,12.44,0,0,1,8.45,3.94,8.94,8.94,0,0,1,2.28,6,9.75,9.75,0,0,1-.09,1.37,8.84,8.84,0,0,1-4,6.51A13.68,13.68,0,0,1,77.9,65l.06.06h0C78.08,65.1,78.12,65.16,78.12,65.26Zm-21.33-20a.12.12,0,0,1,.13-.13c.11,0,.16,0,.16.13s0,.13-.16.13A.12.12,0,0,1,56.79,45.3Zm1.4-3.11v0c0-.09,0-.13.1-.13s.12,0,.12.16v0a.08.08,0,0,1-.09.09C58.23,42.31,58.19,42.27,58.19,42.19Zm2.16,8.66h-.06a.58.58,0,0,1-.64-.63c0-.47.22-.7.67-.7s.7.22.7.67A.59.59,0,0,1,60.35,50.85Zm1.14-8.31a1.13,1.13,0,0,1,.35.76,1.22,1.22,0,0,1-1.08,1.08,1,1,0,0,1-.7-.35.93.93,0,0,1-.38-.7,1,1,0,0,1,.35-.7,1,1,0,0,1,.73-.41A1.07,1.07,0,0,1,61.49,42.54ZM60.7,63.87c.29,0,.44.13.44.41s-.14.44-.41.44a.43.43,0,0,1,0-.85Zm3,9.36h-.06a.29.29,0,0,1-.32-.29v-.09c0-.17.11-.27.32-.29h.06c.17,0,.28.11.32.32v.06C64,73.11,63.92,73.21,63.71,73.23Zm1.65-48.47c0-.08,0-.12.13-.12s.16,0,.16.12-.05.13-.16.13A.12.12,0,0,1,65.36,24.76Zm.29,8.7V33.4c0-.21.13-.34.38-.38a.36.36,0,0,1,.41.41c0,.29-.14.44-.41.44S65.65,33.74,65.65,33.46Zm2.13-3.3a.22.22,0,0,1,.22-.25.22.22,0,0,1,.25.25c0,.15-.08.22-.25.22A.19.19,0,0,1,67.78,30.16Zm2.15,45h-.16q-.49,0-.57-.57v-.16c0-.34.19-.54.57-.61h.16c.34,0,.54.2.61.61v.16C70.54,75,70.34,75.15,69.93,75.2Zm.83-24.32,0,6.51a.54.54,0,0,1,.25.06l3.21-6A16.39,16.39,0,0,1,70.76,50.88ZM72.06,58,80.92,57a3.08,3.08,0,0,0,.85-1.78V55a2.79,2.79,0,0,0-.66-1.75q-1.56-1.74-5.4-1.74-.6,0-1.17,0l-3.05,6.15.06.07,6.1-3.87L71.74,57.9a.09.09,0,0,1,0,.06A1.77,1.77,0,0,1,72.06,58Zm1.3,10.34H73.3a.28.28,0,0,1-.32-.28V68c0-.19.11-.29.32-.31h.09c.15,0,.24.1.26.31v.1C73.65,68.27,73.55,68.35,73.36,68.37Zm.22,10.7a.84.84,0,0,1,1-.95h.06a.83.83,0,0,1,.92.92.89.89,0,0,1-1,1A.88.88,0,0,1,73.58,79.07Zm7.11-21.93-7,1.11.07.06a16.64,16.64,0,0,0,1.9.1C78,58.41,79.7,58,80.69,57.14ZM74.82,39.78a.26.26,0,0,1,.22-.29.26.26,0,0,1,.29.29c0,.19-.08.28-.22.28S74.82,40,74.82,39.78ZM76,38.41v0c0,.09,0,.13-.1.13s-.13,0-.13-.16v0a.09.09,0,0,1,.1-.1A.12.12,0,0,1,76,38.41Zm.47-13.49h-.06q-.57,0-.6-.63a.59.59,0,0,1,.66-.67.61.61,0,0,1,.7.64C77.17,24.7,76.94,24.92,76.47,24.92Zm.86,42h-.06a.35.35,0,0,1-.39-.35v-.09c0-.22.12-.33.35-.35h.1c.19,0,.31.11.35.35v.06A.37.37,0,0,1,77.33,66.88ZM79.2,26.45c0-.09,0-.13.13-.13s.16,0,.16.13a.14.14,0,0,1-.16.15C79.24,26.6,79.2,26.55,79.2,26.45Zm.26,2.19c0-.11,0-.16.12-.16s.13.05.13.16,0,.12-.13.12A.11.11,0,0,1,79.46,28.64ZM80.6,79.13v.07c0,.16-.11.28-.32.34h-.06a.3.3,0,0,1-.32-.31v-.1c0-.17.1-.27.32-.32h.06C80.47,78.81,80.58,78.92,80.6,79.13Zm-.41-35.32c0,.08,0,.12-.13.12s-.13,0-.13-.12,0-.13.13-.13A.12.12,0,0,1,80.19,43.81Zm.09,10.25h.06c.13,0,.2.08.23.25v0c0,.13-.08.2-.23.23h-.06a.22.22,0,0,1-.25-.19C80,54.19,80.11,54.08,80.28,54.06Zm.22-28.38c0-.08,0-.12.13-.12s.13,0,.13.12a.12.12,0,0,1-.13.13C80.54,25.81,80.5,25.77,80.5,25.68Zm.29,50.85h-.07c-.06,0-.09,0-.09-.16v0c0-.06,0-.11.13-.13a.16.16,0,0,1,.16.13C80.92,76.46,80.87,76.53,80.79,76.53Zm.66-3.87h-.06c-.1,0-.17-.08-.19-.23a.2.2,0,0,1,.22-.22c.17,0,.26.07.26.19S81.6,72.66,81.45,72.66Zm.07-8.1h.09c.07,0,.11,0,.13.13s0,.19-.16.19h-.09c-.07,0-.1,0-.1-.13v-.09C81.39,64.6,81.43,64.56,81.52,64.56Zm.25-21.07c0-.17.08-.25.22-.25s.29.07.29.22-.09.28-.25.28S81.77,43.66,81.77,43.49Zm.48.82c0-.08,0-.12.13-.12a.11.11,0,0,1,.12.12c0,.09,0,.13-.12.13S82.25,44.4,82.25,44.31Zm.13-18.72c0-.11.05-.16.15-.16s.13.05.13.16a.12.12,0,0,1-.13.13C82.43,25.72,82.38,25.67,82.38,25.59Zm1.3,51.35c-.07.19-.18.29-.35.29a.46.46,0,0,1-.23-.07c-.19-.06-.28-.17-.28-.31a.56.56,0,0,1,.06-.23c.09-.19.2-.28.35-.28l.19,0c.19.11.29.23.29.38A.63.63,0,0,1,83.68,76.94ZM83,23.21a.31.31,0,0,1,.29-.35.31.31,0,0,1,.35.35.32.32,0,0,1-.32.35C83.15,23.56,83,23.44,83,23.21Zm.29,1.71c0-.06,0-.1.16-.12a.11.11,0,0,1,.12.12c0,.11,0,.16-.12.16A.14.14,0,0,1,83.33,24.92ZM84,21.08a.29.29,0,0,1,.32-.32h.06c.17,0,.27.11.29.32s-.12.32-.35.32A.29.29,0,0,1,84,21.08Zm.48,4.83c0,.08,0,.12-.13.12s-.09,0-.09-.12,0-.1.09-.1S84.47,25.84,84.47,25.91ZM85,21.53a.12.12,0,0,1-.13-.13c0-.06,0-.1.13-.1s.09,0,.09.1S85,21.53,85,21.53Zm1,51.7a.35.35,0,1,1,.7,0v.06c0,.19-.12.3-.35.32S85.93,73.48,85.93,73.23Zm2.28-23.74a.94.94,0,0,1-.34-.7,1.16,1.16,0,0,1,.31-.73,1.17,1.17,0,0,1,.76-.35,1.13,1.13,0,0,1,.7.32,1,1,0,0,1,.38.73,1.08,1.08,0,0,1-.35.7,1,1,0,0,1-.73.38A1.15,1.15,0,0,1,88.21,49.49ZM89,30.89a.45.45,0,0,1-.16-.32.56.56,0,0,1,.12-.32.52.52,0,0,1,.35-.15.5.5,0,0,1,.29.12.45.45,0,0,1,.19.35.43.43,0,0,1-.16.29.44.44,0,0,1-.32.19A.37.37,0,0,1,89,30.89Zm1.17,36s-.06,0-.06-.06a.21.21,0,0,1,.06-.16.1.1,0,0,1,.1-.07.09.09,0,0,1,.06,0s.06.08.06.1a.21.21,0,0,1,0,.13.1.1,0,0,1-.09.06ZM91.9,56.72h-.07c-.12,0-.19-.07-.19-.22s.09-.22.26-.22.22.06.22.19S92,56.72,91.9,56.72Zm4.44-37.1c0-.17.1-.25.29-.25s.28.08.28.25-.08.32-.25.32A.29.29,0,0,1,96.34,19.62Zm4.89.32c0-.21.08-.32.25-.32s.32.1.32.29a.29.29,0,0,1-.32.32C101.31,20.23,101.23,20.13,101.23,19.94Z" transform="translate(-9.73 -7.78)"/><path class="cls-1" d="M74.25,38.57a.61.61,0,0,1,.67-.67c.42,0,.64.23.66.67a.62.62,0,0,1-.66.7C74.49,39.27,74.27,39,74.25,38.57ZM79,60.34c0-.19.08-.29.25-.31a.3.3,0,0,1,.32.31c0,.17-.11.26-.32.26S79,60.51,79,60.34Zm.7-31.2a.22.22,0,0,1,.25-.25c.15,0,.22.08.22.25s-.07.2-.22.23A.23.23,0,0,1,79.68,29.14ZM105,65.26l4.54,4.48-4.63-4.32a.11.11,0,0,1-.07,0,.18.18,0,0,1-.19-.16V65.2l-.12-.13c-.62.06-1.26.1-1.94.1s-1.3,0-1.94-.07l.64,1.37-.67-1.37a28,28,0,0,1-2.79-.38l-.16,8-.16-8A21.27,21.27,0,0,1,93,63.17,10.28,10.28,0,0,1,92,62.63l-7.08,4.89,6.8-5a11.73,11.73,0,0,1-2.26-1.59l1.46-1.52-2.09.22L91,59.26l.82-.85,1-1.21-4.57-1.43a.38.38,0,0,1-.16,0c-.15,0-.23,0-.25-.16L83,54.12l4.83,1.34a.23.23,0,0,1,.25-.23c.21,0,.32.1.32.29v.09L93.13,57l1-1.11a4.23,4.23,0,0,0,.95.69L90.63,52.6,95.9,57A.09.09,0,0,0,96,57a6.26,6.26,0,0,0,.89.38L91.52,47.3l5.84,10,.22-6.45a10.85,10.85,0,0,1-5.46-3.39,8.51,8.51,0,0,1-2.38-6,9.15,9.15,0,0,1,.09-1.27,9.54,9.54,0,0,1,4-6.6,14.85,14.85,0,0,1,8.7-2.48,22.26,22.26,0,0,1,9.52,2,14.37,14.37,0,0,1,3.59,2.32L111,40.44c0-.12-.61-.49-1.84-1.11a15.39,15.39,0,0,0-6.6-1.36c-3.72,0-5.71,1-6,3.11v.44A2.08,2.08,0,0,0,97.17,43q1.55,1.76,5.39,1.75,1.08,0,2.1.09a12.43,12.43,0,0,1,8.44,3.94,8.94,8.94,0,0,1,2.28,6,9.75,9.75,0,0,1-.09,1.37,8.84,8.84,0,0,1-4,6.51A13.68,13.68,0,0,1,104.75,65l.06.06h0C104.93,65.1,105,65.16,105,65.26Zm-21.33-20a.12.12,0,0,1,.13-.13c.11,0,.16,0,.16.13s-.05.13-.16.13A.12.12,0,0,1,83.64,45.3ZM85,42.19v0c0-.09,0-.13.1-.13s.12,0,.12.16v0a.08.08,0,0,1-.09.09C85.08,42.31,85,42.27,85,42.19Zm2.16,8.66h-.06a.58.58,0,0,1-.64-.63c0-.47.22-.7.67-.7s.7.22.7.67A.59.59,0,0,1,87.2,50.85Zm1.14-8.31a1.13,1.13,0,0,1,.35.76,1.22,1.22,0,0,1-1.08,1.08,1,1,0,0,1-.7-.35.93.93,0,0,1-.38-.7,1,1,0,0,1,.35-.7,1,1,0,0,1,.73-.41A1.07,1.07,0,0,1,88.34,42.54Zm-.79,21.33c.29,0,.44.13.44.41s-.13.44-.41.44a.4.4,0,0,1-.44-.41A.39.39,0,0,1,87.55,63.87Zm3,9.36H90.5a.29.29,0,0,1-.32-.29v-.09c0-.17.11-.27.32-.29h.06c.17,0,.28.11.32.32v.06C90.88,73.11,90.77,73.21,90.56,73.23Zm1.65-48.47c0-.08.05-.12.13-.12s.16,0,.16.12,0,.13-.16.13A.12.12,0,0,1,92.21,24.76Zm.29,8.7V33.4c0-.21.13-.34.38-.38a.36.36,0,0,1,.41.41c0,.29-.13.44-.41.44S92.5,33.74,92.5,33.46Zm2.13-3.3a.22.22,0,0,1,.22-.25.22.22,0,0,1,.25.25c0,.15-.08.22-.25.22A.19.19,0,0,1,94.63,30.16Zm2.15,45h-.15c-.34,0-.53-.19-.58-.57v-.16c0-.34.19-.54.58-.61h.15c.34,0,.54.2.61.61v.16C97.39,75,97.19,75.15,96.78,75.2Zm.83-24.32,0,6.51a.62.62,0,0,1,.26.06l3.2-6A16.39,16.39,0,0,1,97.61,50.88ZM98.91,58,107.77,57a3.08,3.08,0,0,0,.85-1.78V55a2.79,2.79,0,0,0-.66-1.75q-1.56-1.74-5.4-1.74-.6,0-1.17,0l-3,6.15.06.07,6.1-3.87L98.59,57.9s0,0,0,.06A1.91,1.91,0,0,1,98.91,58Zm1.3,10.34h-.06a.28.28,0,0,1-.32-.28V68c0-.19.11-.29.32-.31h.09c.15,0,.24.1.26.31v.1C100.5,68.27,100.4,68.35,100.21,68.37Zm.22,10.7a.84.84,0,0,1,1-.95h.06a.83.83,0,0,1,.92.92.89.89,0,0,1-1,1A.88.88,0,0,1,100.43,79.07Zm7.11-21.93-7,1.11.07.06a16.64,16.64,0,0,0,1.9.1C104.89,58.41,106.55,58,107.54,57.14Zm-5.87-17.36a.26.26,0,0,1,.22-.29.26.26,0,0,1,.29.29c0,.19-.07.28-.22.28S101.67,40,101.67,39.78Zm1.18-1.37v0c0,.09,0,.13-.1.13s-.13,0-.13-.16v0a.09.09,0,0,1,.1-.1A.12.12,0,0,1,102.85,38.41Zm.47-13.49h-.06q-.57,0-.6-.63a.59.59,0,0,1,.66-.67.61.61,0,0,1,.7.64C104,24.7,103.79,24.92,103.32,24.92Zm.86,42h-.06a.35.35,0,0,1-.39-.35v-.09c0-.22.12-.33.35-.35h.1c.19,0,.31.11.35.35v.06A.37.37,0,0,1,104.18,66.88Zm1.87-40.43c0-.09,0-.13.13-.13s.16,0,.16.13a.14.14,0,0,1-.16.15C106.09,26.6,106.05,26.55,106.05,26.45Zm.26,2.19c0-.11,0-.16.12-.16s.13.05.13.16,0,.12-.13.12A.11.11,0,0,1,106.31,28.64Zm1.14,50.49v.07c0,.16-.11.28-.32.34h-.06a.3.3,0,0,1-.32-.31v-.1c0-.17.11-.27.32-.32h.06C107.32,78.81,107.43,78.92,107.45,79.13ZM107,43.81c0,.08-.05.12-.13.12s-.13,0-.13-.12,0-.13.13-.13A.12.12,0,0,1,107,43.81Zm.09,10.25h.06c.13,0,.21.08.23.25v0c0,.13-.08.2-.23.23h-.06a.22.22,0,0,1-.25-.19C106.88,54.19,107,54.08,107.13,54.06Zm.22-28.38c0-.08.05-.12.13-.12s.13,0,.13.12a.13.13,0,0,1-.26,0Zm.29,50.85h-.06c-.07,0-.1,0-.1-.16v0c0-.06,0-.11.13-.13a.16.16,0,0,1,.16.13C107.77,76.46,107.72,76.53,107.64,76.53Zm.67-3.87h-.07c-.1,0-.17-.08-.19-.23a.2.2,0,0,1,.22-.22c.17,0,.26.07.26.19S108.45,72.66,108.31,72.66Zm.06-8.1h.09c.07,0,.11,0,.13.13s0,.19-.16.19h-.09c-.07,0-.1,0-.1-.13v-.09C108.24,64.6,108.28,64.56,108.37,64.56Zm.25-21.07c0-.17.08-.25.22-.25s.29.07.29.22-.08.28-.25.28S108.62,43.66,108.62,43.49Zm.48.82c0-.08,0-.12.13-.12a.11.11,0,0,1,.12.12c0,.09,0,.13-.12.13S109.1,44.4,109.1,44.31Zm.13-18.72c0-.11,0-.16.15-.16s.13.05.13.16a.12.12,0,0,1-.13.13C109.28,25.72,109.23,25.67,109.23,25.59Zm1.3,51.35c-.07.19-.18.29-.35.29a.4.4,0,0,1-.22-.07c-.19-.06-.29-.17-.29-.31a.56.56,0,0,1,.06-.23c.09-.19.2-.28.35-.28l.19,0c.19.11.29.23.29.38A.63.63,0,0,1,110.53,76.94Zm-.64-53.73a.31.31,0,0,1,.29-.35.31.31,0,0,1,.35.35.32.32,0,0,1-.32.35C110,23.56,109.89,23.44,109.89,23.21Zm.29,1.71c0-.06,0-.1.16-.12a.11.11,0,0,1,.12.12c0,.11,0,.16-.12.16A.14.14,0,0,1,110.18,24.92Zm.66-3.84a.29.29,0,0,1,.32-.32h.07c.16,0,.26.11.28.32s-.12.32-.35.32A.29.29,0,0,1,110.84,21.08Zm.48,4.83c0,.08,0,.12-.13.12s-.09,0-.09-.12,0-.1.09-.1S111.32,25.84,111.32,25.91Zm.48-4.38a.12.12,0,0,1-.13-.13c0-.06,0-.1.13-.1s.09,0,.09.1S111.86,21.53,111.8,21.53Zm1,51.7a.35.35,0,1,1,.7,0v.06c0,.19-.12.3-.35.32S112.78,73.48,112.78,73.23Zm2.29-23.74a.92.92,0,0,1-.35-.7,1.16,1.16,0,0,1,.31-.73,1.17,1.17,0,0,1,.77-.35,1.13,1.13,0,0,1,.69.32,1,1,0,0,1,.38.73,1.11,1.11,0,0,1-.34.7,1,1,0,0,1-.73.38A1.1,1.1,0,0,1,115.07,49.49Zm.76-18.6a.45.45,0,0,1-.16-.32.51.51,0,0,1,.13-.32.48.48,0,0,1,.34-.15.5.5,0,0,1,.29.12.45.45,0,0,1,.19.35.43.43,0,0,1-.16.29.44.44,0,0,1-.32.19A.37.37,0,0,1,115.83,30.89Zm1.17,36s-.06,0-.06-.06a.21.21,0,0,1,.06-.16.1.1,0,0,1,.1-.07.09.09,0,0,1,.06,0s.06.08.06.1a.21.21,0,0,1,0,.13.1.1,0,0,1-.09.06Zm1.75-10.13h-.07c-.12,0-.19-.07-.19-.22s.09-.22.26-.22.22.06.22.19S118.9,56.72,118.75,56.72Zm4.44-37.1c0-.17.1-.25.29-.25s.28.08.28.25-.08.32-.25.32A.29.29,0,0,1,123.19,19.62Zm4.89.32c0-.21.08-.32.25-.32s.32.1.32.29a.29.29,0,0,1-.32.32C128.16,20.23,128.08,20.13,128.08,19.94Z" transform="translate(-9.73 -7.78)"/><path class="cls-1" d="M110.43,51.71v.06c0,.43-.22.64-.66.64h-.07c-.4,0-.6-.22-.6-.67v-.06a.55.55,0,0,1,.63-.61C110.2,51.07,110.43,51.29,110.43,51.71Zm.07-14.06a.59.59,0,0,1-.64.63h-.06a.59.59,0,0,1-.67-.66c0-.43.2-.64.6-.64h.1A.6.6,0,0,1,110.5,37.65Zm.34,40.85a.15.15,0,0,1,.07.12.11.11,0,0,1,0,.07s-.08.06-.1.06a.23.23,0,0,1-.13,0,.1.1,0,0,1-.06-.1.49.49,0,0,1,0-.12.33.33,0,0,1,.13,0A.13.13,0,0,1,110.84,78.5Zm.07-58.15a.14.14,0,0,1,.12.13v.09c0,.07,0,.1-.09.1h-.06c-.11,0-.16-.06-.16-.19S110.8,20.35,110.91,20.35Zm.41,18.85a.48.48,0,0,1,.44.45.37.37,0,0,1-.19.32.57.57,0,0,1-.28.09.43.43,0,0,1-.32-.19.57.57,0,0,1-.09-.28.34.34,0,0,1,.22-.29A.42.42,0,0,1,111.32,39.2Zm.89-20a1.11,1.11,0,0,1,.76.38,1,1,0,0,1,.32.7.93.93,0,0,1-.38.7,1.15,1.15,0,0,1-.73.35.91.91,0,0,1-.7-.38,1,1,0,0,1-.35-.7.91.91,0,0,1,.38-.7A1.1,1.1,0,0,1,112.21,19.21Zm-.13,17.46a.09.09,0,0,1,0,.06c0,.1-.06.16-.13.16a.09.09,0,0,1-.06,0c-.11,0-.16-.1-.16-.16a.13.13,0,0,1,0-.07.3.3,0,0,1,.19-.09h0C112,36.56,112.08,36.6,112.08,36.67Zm1.11,4.44a.61.61,0,0,1,0,.16c0,.17-.13.25-.25.25l-.19,0a.33.33,0,0,1-.23-.32.28.28,0,0,1,0-.12c.06-.17.16-.26.28-.26l.16,0A.31.31,0,0,1,113.19,41.11Zm-.5-3.08V38c0-.21.14-.32.31-.32h.1a.32.32,0,0,1,.28.35v.06a.34.34,0,0,1-.35.32H113A.32.32,0,0,1,112.69,38Zm.63,20.66a.6.6,0,0,1-.22-.41.54.54,0,0,1,.19-.41.61.61,0,0,1,.44-.26.62.62,0,0,1,.42.19.55.55,0,0,1,0,.86.64.64,0,0,1-.45.22A.65.65,0,0,1,113.32,58.69Zm.76,7.18a.83.83,0,0,1-.19-.51,1.06,1.06,0,0,1,.41-.76,1,1,0,0,1,.7-.35,1,1,0,0,1,.73.38.91.91,0,0,1,0,1.46,1.12,1.12,0,0,1-.73.35.66.66,0,0,1-.32-.1v.19a.55.55,0,0,1-.57.6H114q-.51,0-.57-.57v-.09a.56.56,0,0,1,.53-.6Zm.35-35.62a.35.35,0,0,1,0,.16.18.18,0,0,1-.19.16.31.31,0,0,1-.13,0,.23.23,0,0,1-.16-.22v-.13c0-.1.11-.16.19-.16a.28.28,0,0,1,.13,0C114.37,30.09,114.43,30.15,114.43,30.25Zm.86-8.37a.35.35,0,0,1-.16-.07.19.19,0,0,1-.1-.16.4.4,0,0,1,.07-.16.18.18,0,0,1,.16-.09.55.55,0,0,1,.19.06.23.23,0,0,1,.09.19.29.29,0,0,1-.06.16A.27.27,0,0,1,115.29,21.88Zm.06,56.84a.37.37,0,0,1-.22-.32.43.43,0,0,1,.09-.25.44.44,0,0,1,.32-.22.5.5,0,0,1,.29.12.38.38,0,0,1,.19.29.5.5,0,0,1-.1.28.41.41,0,0,1-.35.16A.56.56,0,0,1,115.35,78.72Zm.38-26.38.19,0c.15,0,.22.12.22.25a.89.89,0,0,1,0,.19.26.26,0,0,1-.28.22l-.16,0a.32.32,0,0,1-.22-.32.27.27,0,0,1,0-.12C115.54,52.42,115.63,52.34,115.73,52.34Zm0-2.47v0c0-.11.08-.16.16-.16s0,0,.06.06.13.06.13.13a.09.09,0,0,1,0,.06c0,.07,0,.1-.1.1a.27.27,0,0,1-.12,0A.13.13,0,0,1,115.73,49.87Zm1.4,21.71a.45.45,0,0,1,.35.19.47.47,0,0,1,.16.32.57.57,0,0,1-.16.31.53.53,0,0,1-.35.13.45.45,0,0,1-.32-.16.59.59,0,0,1-.16-.32.54.54,0,0,1,.19-.34A.46.46,0,0,1,117.13,71.58ZM116.72,33v-.1a.17.17,0,0,1,.19-.16H117a.21.21,0,0,1,.16.19V33c0,.12-.11.19-.19.19h-.06C116.78,33.19,116.72,33.12,116.72,33ZM140.3,38a.58.58,0,0,1,0,.19c0,.46-.22.7-.67.7a.63.63,0,0,1-.7-.67.48.48,0,0,1,0-.22H125v9h14.28v4.32h.1c.12,0,.2.08.22.25v0c0,.13-.08.2-.22.22h-.1v2H128.21a.35.35,0,0,1,.06.19.31.31,0,0,1,0,.13c-.07.17-.15.25-.26.25l-.19,0a.3.3,0,0,1-.22-.29.33.33,0,0,1,0-.15.13.13,0,0,1,0-.1h-1.36a.68.68,0,0,1-.06.29.55.55,0,0,1-.54.47,1.1,1.1,0,0,1-.32-.06.65.65,0,0,1-.35-.25v4.22h17v6.76H118.21v-34H142V38ZM120,25.11a.6.6,0,0,1,.64.67.62.62,0,0,1-.67.67c-.46,0-.7-.25-.7-.67A.64.64,0,0,1,120,25.11Zm-.25,41.68A.37.37,0,0,1,120,67a.47.47,0,0,1,.09.28.35.35,0,0,1-.19.29.57.57,0,0,1-.25.06.38.38,0,0,1-.32-.16.52.52,0,0,1-.06-.22.39.39,0,0,1,.19-.35A.4.4,0,0,1,119.7,66.79Zm1.81-41.39a.12.12,0,0,1,.09.13v.06a.12.12,0,0,1-.12.09.14.14,0,0,1-.13-.15v0C121.37,25.43,121.42,25.4,121.51,25.4Zm.54-.35H122c-.12,0-.19-.11-.19-.19v-.1c0-.14.1-.22.22-.22h.1a.26.26,0,0,1,.16.22v.1C122.22,25,122.15,25.05,122.05,25.05Zm2.54-2.41a1,1,0,0,1,0,.22q-.16.51-.54.51a1.15,1.15,0,0,1-.26,0c-.36-.07-.54-.26-.54-.58a.68.68,0,0,1,0-.19.58.58,0,0,1,.58-.5l.25,0Q124.59,22.19,124.59,22.64ZM124,25.53v.06q-.06.09-.12.09h0q-.09,0-.09-.09v-.06c0-.07,0-.1.09-.1h0C123.91,25.45,124,25.48,124,25.53Zm.19-6.1v0a.11.11,0,0,1,.1-.06h.06a.05.05,0,0,1,.06.06v.06c0,.09,0,.13-.09.13h0C124.17,19.57,124.14,19.52,124.14,19.43Zm1.15-.47a.12.12,0,0,1,.09,0c.13,0,.19.09.19.16a.23.23,0,0,1,0,.09.18.18,0,0,1-.19.16h-.06a.21.21,0,0,1-.16-.19v-.06C125.17,19,125.22,19,125.29,19Zm.28,21.8h.06a.17.17,0,0,1,.1.16V41a.18.18,0,0,1-.16.1h-.06a.18.18,0,0,1-.13-.16v-.07A.28.28,0,0,1,125.57,40.76Zm1.18,1.71a.53.53,0,0,1,0,.16.33.33,0,0,1-.31.26.2.2,0,0,1-.13,0,.29.29,0,0,1-.22-.28.55.55,0,0,1,0-.16.25.25,0,0,1,.25-.22l.19,0C126.67,42.26,126.75,42.35,126.75,42.47Zm.15-.89-.15,0a.31.31,0,0,1-.23-.28.69.69,0,0,1,0-.22c0-.15.13-.23.26-.23l.22,0c.17,0,.25.14.25.29a.63.63,0,0,1,0,.19A.34.34,0,0,1,126.9,41.58Zm.7,13a1,1,0,0,1,0,.19.45.45,0,0,1-.38.25L127,55a.35.35,0,0,1-.28-.35.61.61,0,0,1,0-.16.35.35,0,0,1,.35-.28.29.29,0,0,1,.15.06C127.5,54.34,127.6,54.45,127.6,54.6Zm-.35-11.08v0a.09.09,0,0,1-.09.07h0a.1.1,0,0,1-.07-.1v0a.11.11,0,0,1,.1-.06h0A.1.1,0,0,1,127.25,43.52ZM128,55a.12.12,0,0,1-.06.1c0,.06,0,.09-.1.09a.12.12,0,0,1-.09,0c-.09,0-.13-.06-.13-.13a.09.09,0,0,1,0-.06.14.14,0,0,1,.13-.1h.06C127.93,54.9,128,55,128,55Zm1-39.86c0,.23-.14.37-.41.41a.41.41,0,0,1-.16,0c-.24,0-.37-.14-.42-.41a.38.38,0,0,1,0-.16c0-.23.14-.37.42-.41a.33.33,0,0,1,.15,0c.24,0,.37.13.42.41A.35.35,0,0,1,129,15.15Zm-.7,1.9a.13.13,0,0,1,.13.1v.06a.18.18,0,0,1-.1.16h0c-.08,0-.14-.05-.16-.16v0c0-.07,0-.11.13-.13Zm1,53.92c.3,0,.56.2.8.58a1.23,1.23,0,0,1,.19.6.89.89,0,0,1-.54.76,1.14,1.14,0,0,1-.6.19,1,1,0,0,1-.8-.54,1.63,1.63,0,0,1-.16-.63.94.94,0,0,1,.54-.76A1.12,1.12,0,0,1,129.28,71Zm.7-52.71c0,.46-.24.7-.66.7s-.7-.26-.7-.7a.62.62,0,0,1,.7-.67A.6.6,0,0,1,130,18.26ZM128.9,12a.15.15,0,0,1-.12-.07.19.19,0,0,1-.13-.19.29.29,0,0,1,.09-.16c0-.06.09-.09.13-.09a.18.18,0,0,1,.16.09.22.22,0,0,1,.1.16.22.22,0,0,1-.07.16A.19.19,0,0,1,128.9,12Zm1.81,0V12c.07-.25.19-.38.38-.38h.07c.25,0,.38.17.38.38V12c0,.25-.17.38-.38.38h-.07C130.84,12.38,130.71,12.25,130.71,12Zm.45,63.06h-.07a.28.28,0,0,1-.31-.29v-.09c0-.17.1-.26.31-.29h.07c.17,0,.27.11.31.32v.06C131.47,75,131.37,75.08,131.16,75.1Zm.5-17.07v0s0-.06.1-.06h0a.05.05,0,0,1,.06.06c0,.09,0,.13-.09.13S131.66,58.09,131.66,58Zm.61-40.92a.31.31,0,0,1-.13,0,.23.23,0,0,1,0-.09.11.11,0,0,1,.06-.1.21.21,0,0,1,.13,0s0,0,.09.06,0,0,0,.07a.11.11,0,0,1-.07.09A.12.12,0,0,1,132.27,17.11Zm.35,39h-.13c-.19,0-.3-.11-.32-.35v-.09c0-.17.11-.28.32-.32h.06a.36.36,0,0,1,.38.32v.06C132.93,56,132.83,56.13,132.62,56.15Zm.19,1.4h-.07a.32.32,0,0,1-.35-.32v-.06c0-.17.11-.29.32-.35h.07c.16,0,.28.11.34.32v.06A.31.31,0,0,1,132.81,57.55Zm.35-43.93v.07c0,.21-.16.31-.35.31h-.07c-.21,0-.31-.12-.31-.31v-.07a.33.33,0,0,1,.35-.31h.06C133.05,13.33,133.16,13.43,133.16,13.62Zm.66-2.79a.59.59,0,0,1-.63-.67.58.58,0,0,1,.66-.66c.43,0,.64.23.64.63v.07C134.49,10.62,134.27,10.83,133.82,10.83Zm.1,45.13h0c-.07,0-.11-.05-.13-.16v-.06c0-.06,0-.1.13-.1H134c.06,0,.11,0,.13.13S134,56,133.92,56Zm.63-37.77v-.06a.21.21,0,0,1,.19-.16h.07a.22.22,0,0,1,.16.19v.1a.19.19,0,0,1-.2.16h-.06A.25.25,0,0,1,134.55,18.19Zm.95,3.94h-.06c-.38,0-.58-.21-.6-.64a.58.58,0,0,1,.66-.66c.45,0,.68.21.7.63S136,22.13,135.5,22.13Zm4,51.73h-.16q-.51,0-.57-.57v-.16q0-.51.57-.6h.16c.34,0,.54.2.61.6v.16C140.08,73.63,139.87,73.82,139.47,73.86ZM139.22,41c0,.09,0,.13-.13.13A.12.12,0,0,1,139,41c0-.08,0-.12.13-.12S139.22,40.93,139.22,41Zm1.59-14.82a.9.9,0,0,1-.35-.7,1.13,1.13,0,0,1,1.08-1.08,1.13,1.13,0,0,1,.69.32,1,1,0,0,1,.38.73,1.08,1.08,0,0,1-.34.7,1,1,0,0,1-.73.38A1.1,1.1,0,0,1,140.81,26.19Zm0,14.51c0-.17.07-.26.22-.26s.28.08.28.22-.08.29-.25.29A.22.22,0,0,1,140.81,40.7Zm.47.82a.12.12,0,0,1,.13-.13.12.12,0,0,1,.13.13.12.12,0,0,1-.13.13C141.32,41.65,141.28,41.61,141.28,41.52Zm1.3,25.14h-.06c-.11,0-.17-.08-.19-.22s.07-.23.22-.23.25.07.25.19S142.73,66.66,142.58,66.66Zm.86-25h-.1c-.42,0-.63-.22-.63-.67s.2-.63.6-.63h.1q.63,0,.63.6v.07Q144,41.68,143.44,41.68ZM144,44.6a.6.6,0,0,1,.64.67A.6.6,0,0,1,144,46c-.45,0-.67-.22-.67-.6v-.09C143.31,44.82,143.54,44.6,144,44.6Zm0,5.3c0-.15.08-.23.25-.25s.23.08.23.25-.08.22-.23.22S144,50.05,144,49.9Zm2.35-30.34a.91.91,0,0,1,.12.44,1,1,0,0,1-.34.73,1.1,1.1,0,0,1-.73.35,1,1,0,0,1-.73-.38.9.9,0,0,1-.35-.7,1.06,1.06,0,0,1,.41-.76,1.67,1.67,0,0,1,.57-.32c0-.38.22-.58.67-.6a.59.59,0,0,1,.66.67A.6.6,0,0,1,146.33,19.56Zm.76,51.54H147a.28.28,0,0,1-.32-.28v-.07c0-.19.1-.29.32-.31h.09c.15,0,.23.1.26.31v.1C147.38,71,147.28,71.08,147.09,71.1Zm0-3.87a.31.31,0,0,1,.35-.35.31.31,0,0,1,.35.35v.06c0,.19-.12.3-.35.32S147.06,67.48,147.06,67.23ZM148,28.1a.47.47,0,0,1-.16-.32.49.49,0,0,1,.13-.32.41.41,0,0,1,.63,0,.45.45,0,0,1,.19.35.69.69,0,0,1-.47.47A.39.39,0,0,1,148,28.1Zm.41,18c.21,0,.32.1.32.29s-.11.28-.32.28-.25-.1-.25-.32A.22.22,0,0,1,148.42,46.06Zm.1-31.23v-.1q.06-.57.57-.57h.09a.57.57,0,0,1,.58.61v.09a.54.54,0,0,1-.58.54h-.12A.53.53,0,0,1,148.52,14.83Zm.66,49.23a.1.1,0,0,1-.06-.07.25.25,0,0,1,.06-.16.12.12,0,0,1,.1-.06.09.09,0,0,1,.06,0,.22.22,0,0,1,.07.1c0,.06,0,.1,0,.12a.09.09,0,0,1-.09.07Zm1-46.12c0-.19.08-.29.25-.29s.32.09.32.26a.29.29,0,0,1-.32.32C150.22,18.23,150.14,18.13,150.14,17.94Zm.79,36h-.06c-.13,0-.19-.07-.19-.22s.08-.22.25-.22.22.06.22.19S151.08,53.93,150.93,53.93Zm.57-29q-.63,0-.63-.6v-.06c0-.43.2-.64.6-.64h.06c.45,0,.67.2.67.6v.07C152.2,24.71,152,24.92,151.5,24.92Zm-.25,36.37a.54.54,0,0,1-.32-.47.78.78,0,0,1,.09-.32.55.55,0,0,1,.45-.32.93.93,0,0,1,.38.1.54.54,0,0,1,.29.44,1,1,0,0,1-.1.38.58.58,0,0,1-.48.29A.65.65,0,0,1,151.25,61.29Zm1.46,6.23c-.09,0-.13-.1-.13-.16v0a.15.15,0,0,1,.16-.12h0a.13.13,0,0,1,.1.12v.07c0,.08-.07.13-.13.13Zm1-.58a.61.61,0,0,1-.69-.66c0-.43.23-.65.69-.67s.65.22.67.67S154.2,66.92,153.75,66.94Zm1.15-37.76v.09c0,.4-.21.6-.64.6h-.09c-.41,0-.61-.21-.61-.63s.22-.7.64-.7h.09C154.7,28.54,154.9,28.75,154.9,29.18Zm5.49.79a.5.5,0,0,1,.28-.83.5.5,0,0,1,.35.16.43.43,0,0,1,.16.29.49.49,0,0,1-.16.35.41.41,0,0,1-.63,0Z" transform="translate(-9.73 -7.78)"/><path class="cls-1" d="M129.32,37.4a.69.69,0,0,1,0,.22q-.15.51-.54.51a.77.77,0,0,1-.25,0Q128,38,128,37.52a.68.68,0,0,1,0-.19q.13-.51.57-.51a.78.78,0,0,1,.26,0Q129.32,37,129.32,37.4Zm-.7-9a.19.19,0,0,1-.13-.06.4.4,0,0,1-.09-.22.19.19,0,0,1,.06-.13.18.18,0,0,1,.16-.09.38.38,0,0,1,.19.06.28.28,0,0,1,.09.19.35.35,0,0,1-.06.16A.31.31,0,0,1,128.62,28.41Zm.25,5.78v0a.11.11,0,0,1,.1-.07H129s.06,0,.06.07v.06c0,.09-.05.13-.09.13h0A.15.15,0,0,1,128.87,34.19Zm1.14-.48a.11.11,0,0,1,.1,0c.13,0,.19.09.19.15a.22.22,0,0,1,0,.1.18.18,0,0,1-.19.16H130a.21.21,0,0,1-.15-.19V33.9C129.9,33.78,130,33.71,130,33.71Zm6.29-3.11c-.07,0-.12-.05-.16-.16v0c0-.06,0-.1.13-.12h0a.14.14,0,0,1,.13.09v.06a.19.19,0,0,1-.1.16Zm4.51,19.65a.92.92,0,0,1-.07.32.54.54,0,0,1-.54.47,1.16,1.16,0,0,1-.32-.06.59.59,0,0,1-.44-.57.68.68,0,0,1,.06-.29.59.59,0,0,1,.58-.47.61.61,0,0,1,.25.06Q140.81,49.91,140.81,50.25Zm-.58-13.36h-.06c-.38,0-.58-.21-.6-.64a.58.58,0,0,1,.66-.66c.45,0,.68.21.7.63S140.7,36.89,140.23,36.89Zm-.12.41h.06a.2.2,0,0,1,.1.16v.06a.19.19,0,0,1-.16.1H140a.19.19,0,0,1-.12-.16V37.4A.24.24,0,0,1,140.11,37.3Zm14.18,16.41-.6-.1.6.07-1.23-2.86-.13,7.27-.16-7.9-1.33-3.11-9.52,6.53,9.36-6.88-.22-.54-5.75.63L151,46l-.25-.64-10.38-3.27,10.19,2.83-.64-1.46-3-2.67,2.92,2.41-5.21-12.09h7.87l1.21,3.14a.77.77,0,0,1,.54-.19h.06c.38,0,.58.21.61.64a.61.61,0,0,1-.67.7h-.1l1.75,4.5L159,34l-3,6.19L157.06,43l1.77-1.11-1.74,1.21.73,1.9,3-.35L166,31.11h7.87l-8.22,19.14a.21.21,0,0,1-.1.19l-.89,2.06,3-5-3.69,7,.1.09L168.26,51l-4,3.59,9.11-2.57L164.23,55V55l5.23.76-5.26-.6s0,0,0,0l2.13,1.59.1,0a1.13,1.13,0,0,1,.19.19l5.52,4.09-5.43-3.74a2.22,2.22,0,0,1-.09.28.58.58,0,0,1-.48.29.72.72,0,0,1-.32-.1.53.53,0,0,1-.31-.47.78.78,0,0,1,.09-.32,1.19,1.19,0,0,1,.25-.28L164,55.52l-.19.06a.58.58,0,0,0-.13.1l-.19,8.92-.13-8.8-.6,1.21-3.52,8.22-1.88-4.35-1.84,1.72,1.81-1.81ZM140.84,29.56h.06c.21,0,.34.12.38.38V30c0,.19-.13.31-.38.35h-.06c-.19,0-.32-.12-.38-.35v-.06C140.46,29.73,140.58,29.6,140.84,29.56Zm.44,9.45a.5.5,0,0,1,0,.16.33.33,0,0,1-.32.26.27.27,0,0,1-.12,0c-.15-.07-.23-.16-.23-.29a.55.55,0,0,1,0-.16c0-.15.13-.22.26-.22l.19,0A.25.25,0,0,1,141.28,39Zm.16-.88a.37.37,0,0,1-.16,0,.29.29,0,0,1-.22-.28.69.69,0,0,1,0-.22c0-.15.13-.23.25-.23a.7.7,0,0,1,.23,0c.17,0,.25.13.25.28a.63.63,0,0,1,0,.19A.35.35,0,0,1,141.44,38.13Zm.7,13a1,1,0,0,1,0,.19.46.46,0,0,1-.38.25l-.16,0a.36.36,0,0,1-.29-.35.61.61,0,0,1,0-.16.36.36,0,0,1,.35-.28.32.32,0,0,1,.16.06C142,50.88,142.14,51,142.14,51.14Zm-.35-11.08v0a.1.1,0,0,1-.1.07h0a.11.11,0,0,1-.06-.1v0a.1.1,0,0,1,.09-.06h0A.1.1,0,0,1,141.79,40.06Zm1,10.41a.31.31,0,0,1,0,.13c-.06.17-.14.25-.25.25a.63.63,0,0,1-.19,0,.3.3,0,0,1-.22-.28.35.35,0,0,1,0-.16c0-.17.13-.26.25-.26a.44.44,0,0,1,.19,0A.33.33,0,0,1,142.8,50.47Zm-.28,1.08a.11.11,0,0,1-.06.1c0,.06-.06.09-.1.09a.12.12,0,0,1-.09,0c-.09,0-.13-.06-.13-.13a.09.09,0,0,1,0-.06.13.13,0,0,1,.13-.1h.06C142.47,51.45,142.52,51.49,142.52,51.55Zm1.3,16a1,1,0,0,1,.79.57,1.14,1.14,0,0,1,.19.6.89.89,0,0,1-.54.76,1.14,1.14,0,0,1-.6.19,1,1,0,0,1-.79-.54,1.47,1.47,0,0,1-.16-.63.94.94,0,0,1,.54-.76A1.1,1.1,0,0,1,143.82,67.52Zm1.87,4.12h-.06a.28.28,0,0,1-.32-.28v-.1c0-.17.11-.26.32-.29h.06c.17,0,.28.11.32.32v.07C146,71.52,145.9,71.62,145.69,71.64Zm.51-17.07v0s0-.06.1-.06h0a.05.05,0,0,1,.06.06c0,.09,0,.13-.09.13S146.2,54.63,146.2,54.57Zm1-1.88H147c-.19,0-.3-.11-.32-.35v-.09c0-.17.1-.28.32-.32h.06a.36.36,0,0,1,.38.32v.06A.33.33,0,0,1,147.15,52.69Zm.19,1.4h-.06a.32.32,0,0,1-.35-.32v-.06c0-.17.11-.29.32-.35h.06c.17,0,.29.11.35.32v.06A.32.32,0,0,1,147.34,54.09Zm1.11-1.59h0c-.06,0-.1,0-.12-.16v-.06q0-.09.12-.09h.07q.09,0,.12.12C148.61,52.44,148.56,52.5,148.45,52.5Zm2.45,8.13h-.07a.34.34,0,0,1-.38-.35v-.1c0-.21.12-.32.35-.35h.1c.19,0,.3.12.35.35v.07A.37.37,0,0,1,150.9,60.63Zm.44-1.59c0-.13.06-.19.16-.19h.06c.09,0,.13,0,.13.16v.06c0,.07-.05.11-.16.13A.18.18,0,0,1,151.34,59ZM154,70.4h-.16q-.51,0-.57-.57v-.16q0-.51.57-.6H154q.51,0,.6.6v.16Q154.61,70.34,154,70.4ZM153.34,31c0-.17.08-.25.22-.25s.23.07.23.22-.08.22-.23.22A.2.2,0,0,1,153.34,31Zm1.21.57h0c-.07,0-.1,0-.1-.09s0-.13.13-.13.16,0,.16.13S154.65,31.52,154.55,31.52Zm.54,26.79h.09c.07,0,.11,0,.13.13s-.05.19-.16.19h-.09c-.07,0-.1,0-.1-.13v-.09C155,58.34,155,58.31,155.09,58.31Zm.25-35.58A.94.94,0,0,1,155,22a1.2,1.2,0,0,1,.32-.73,1,1,0,0,1,1.46,0,1,1,0,0,1,.38.73,1.1,1.1,0,0,1-.35.7,1,1,0,0,1-.73.38A1.1,1.1,0,0,1,155.34,22.73Zm0,14.51c0-.17.08-.26.22-.26s.29.08.29.23-.09.28-.25.28S155.34,37.41,155.34,37.24Zm.48.82a.11.11,0,0,1,.12-.12c.09,0,.13,0,.13.12s0,.13-.13.13S155.82,38.15,155.82,38.06Zm1.3,25.14h-.06c-.11,0-.17-.07-.2-.22a.21.21,0,0,1,.23-.23c.17,0,.25.07.25.2S157.27,63.2,157.12,63.2Zm2.51-15.68-.89-1.78.95,1.75,1.05-2.67-2.8.45.8,2ZM158.29,7.78h.07a.34.34,0,0,1,.35.29v.09a.31.31,0,0,1-.29.32h-.1A.3.3,0,0,1,158,8.2V8.1C158,7.93,158.1,7.83,158.29,7.78Zm.23,38.66c0-.15.08-.23.25-.25s.22.08.22.25a.19.19,0,0,1-.22.22C158.6,46.66,158.52,46.59,158.52,46.44Zm1.14,1.14-.89-.19.48,1.24Zm2,20.06h-.07a.29.29,0,0,1-.32-.28v-.07c0-.19.11-.29.32-.31h.1c.15,0,.23.1.25.31v.1C161.91,67.54,161.82,67.62,161.63,67.64Zm0-3.87a.31.31,0,0,1,.35-.35.31.31,0,0,1,.35.35v.06c0,.19-.11.3-.35.32S161.59,64,161.59,63.77Zm1-39.13a.45.45,0,0,1-.16-.32.48.48,0,0,1,.47-.48.52.52,0,0,1,.29.13.45.45,0,0,1,.19.35.41.41,0,0,1-.16.28.44.44,0,0,1-.32.2A.4.4,0,0,1,162.55,24.64Zm1.17,36a.1.1,0,0,1-.06-.07.25.25,0,0,1,.06-.16.1.1,0,0,1,.1-.06.09.09,0,0,1,.06,0,.18.18,0,0,1,.06.1.17.17,0,0,1,0,.12.09.09,0,0,1-.09.07Zm3.52,3.46c-.08,0-.12-.1-.12-.16v0a.14.14,0,0,1,.15-.13h0a.12.12,0,0,1,.09.13v.06c0,.08-.06.13-.13.13Zm1-.58a.62.62,0,0,1-.7-.66c0-.43.23-.65.7-.67a.61.61,0,0,1,.67.67C169,63.24,168.73,63.46,168.29,63.48Zm1.14-37.76v.09q0,.6-.63.6h-.1q-.6,0-.6-.63c0-.47.21-.7.63-.7h.1C169.23,25.08,169.43,25.29,169.43,25.72Zm-.76,44c0-.17.1-.26.29-.26s.28.09.28.26-.08.31-.25.31A.28.28,0,0,1,168.67,69.74Zm3.21,8.19v-.07q0-.57.66-.6a.67.67,0,0,1,0,1.33C172.11,78.59,171.88,78.37,171.88,77.93Zm.5-3.65a.37.37,0,0,1,.42-.42h.06c.23,0,.35.14.35.42v.06c0,.23-.14.35-.41.35A.37.37,0,0,1,172.38,74.28Zm1.43-30.09a.62.62,0,0,1-.22-.41.58.58,0,0,1,.19-.42.61.61,0,0,1,.45-.25.58.58,0,0,1,.41.19.64.64,0,0,1,.22.44.66.66,0,0,1-.19.42.68.68,0,0,1-.44.22A.71.71,0,0,1,173.81,44.19Zm.64,7.17h.12c.34,0,.53.19.58.57V52a.56.56,0,0,1-.58.6h-.09q-.51,0-.57-.57V52A.57.57,0,0,1,174.45,51.36Zm.47-24.85a.48.48,0,0,1-.19-.35.5.5,0,0,1,.16-.29.46.46,0,0,1,.32-.19.51.51,0,0,1,.35.16.47.47,0,0,1,.16.29.55.55,0,0,1-.51.51A.52.52,0,0,1,174.92,26.51Zm.77,28.09a.17.17,0,0,1,.06.12.09.09,0,0,1,0,.07c-.05,0-.08.06-.1.06a.17.17,0,0,1-.12,0,.1.1,0,0,1-.07-.1.49.49,0,0,1,0-.12l.13,0A.17.17,0,0,1,175.69,54.6Zm1,22.28c0-.19.09-.29.26-.29s.31.09.31.26a.27.27,0,0,1-.31.31C176.82,77.16,176.73,77.07,176.73,76.88Zm1.18-16.22c0-.21.08-.32.25-.32s.32.1.32.29a.29.29,0,0,1-.32.32C178,61,177.91,60.85,177.91,60.66Zm2.28-5.84a.36.36,0,0,1-.22-.32.38.38,0,0,1,.1-.25.41.41,0,0,1,.31-.22.5.5,0,0,1,.29.12.35.35,0,0,1,.19.29.5.5,0,0,1-.1.28.41.41,0,0,1-.35.16A.56.56,0,0,1,180.19,54.82ZM180,57.49c0-.43.23-.65.7-.67a.61.61,0,0,1,.67.67.64.64,0,0,1-.67.69A.65.65,0,0,1,180,57.49Zm8-1.72a.67.67,0,0,1,1.33,0,.62.62,0,0,1-.67.7C188.21,56.47,188,56.24,188,55.77Z" transform="translate(-9.73 -7.78)"/><path class="cls-1" d="M168.67,51.71v.06c0,.43-.22.64-.67.64h-.06c-.4,0-.6-.22-.6-.67v-.06a.55.55,0,0,1,.63-.61C168.44,51.07,168.67,51.29,168.67,51.71Zm.06-14.06a.57.57,0,0,1-.63.63H168a.59.59,0,0,1-.67-.66c0-.43.2-.64.6-.64h.1A.59.59,0,0,1,168.73,37.65Zm.35,40.85a.15.15,0,0,1,.07.12.11.11,0,0,1,0,.07c-.05,0-.08.06-.1.06a.23.23,0,0,1-.13,0,.1.1,0,0,1-.06-.1.49.49,0,0,1,0-.12.33.33,0,0,1,.13,0A.13.13,0,0,1,169.08,78.5Zm.07-58.15a.14.14,0,0,1,.12.13v.09c0,.07,0,.1-.09.1h-.06c-.11,0-.16-.06-.16-.19S169,20.35,169.15,20.35Zm.41,18.85a.48.48,0,0,1,.44.45.37.37,0,0,1-.19.32.57.57,0,0,1-.28.09.43.43,0,0,1-.32-.19.57.57,0,0,1-.09-.28.34.34,0,0,1,.22-.29A.42.42,0,0,1,169.56,39.2Zm.89-20a1.11,1.11,0,0,1,.76.38,1,1,0,0,1,.32.7.93.93,0,0,1-.38.7,1.15,1.15,0,0,1-.73.35.91.91,0,0,1-.7-.38,1,1,0,0,1-.35-.7.91.91,0,0,1,.38-.7A1.1,1.1,0,0,1,170.45,19.21Zm-.13,17.46a.09.09,0,0,1,0,.06c0,.1-.06.16-.13.16a.09.09,0,0,1-.06,0c-.11,0-.16-.1-.16-.16a.13.13,0,0,1,0-.07.3.3,0,0,1,.19-.09h0C170.28,36.56,170.32,36.6,170.32,36.67Zm1.11,4.44a.61.61,0,0,1,0,.16c0,.17-.13.25-.25.25l-.19,0a.33.33,0,0,1-.23-.32.28.28,0,0,1,0-.12c.06-.17.15-.26.28-.26l.16,0A.31.31,0,0,1,171.43,41.11ZM170.92,38V38c.05-.21.15-.32.32-.32h.1a.32.32,0,0,1,.28.35v.06a.34.34,0,0,1-.35.32h-.06A.33.33,0,0,1,170.92,38Zm.64,20.66a.6.6,0,0,1-.22-.41.54.54,0,0,1,.19-.41.61.61,0,0,1,.44-.26.58.58,0,0,1,.41.19.66.66,0,0,1,.23.45.69.69,0,0,1-.19.41.64.64,0,0,1-.45.22A.65.65,0,0,1,171.56,58.69Zm.76,7.18a.83.83,0,0,1-.19-.51,1.06,1.06,0,0,1,.41-.76,1,1,0,0,1,.7-.35,1,1,0,0,1,.73.38.91.91,0,0,1,0,1.46,1.12,1.12,0,0,1-.73.35.66.66,0,0,1-.32-.1v.19a.55.55,0,0,1-.57.6h-.09c-.34,0-.53-.19-.58-.57v-.09a.56.56,0,0,1,.54-.6Zm.35-35.62a.35.35,0,0,1,0,.16.18.18,0,0,1-.19.16.31.31,0,0,1-.13,0,.23.23,0,0,1-.16-.22v-.13c.05-.1.11-.16.19-.16a.28.28,0,0,1,.13,0C172.61,30.09,172.67,30.15,172.67,30.25Zm.86-8.37a.35.35,0,0,1-.16-.07.19.19,0,0,1-.1-.16.3.3,0,0,1,.07-.16.18.18,0,0,1,.16-.09.55.55,0,0,1,.19.06.23.23,0,0,1,.09.19.29.29,0,0,1-.06.16A.27.27,0,0,1,173.53,21.88Zm.06,56.84a.37.37,0,0,1-.22-.32.43.43,0,0,1,.09-.25.44.44,0,0,1,.32-.22.5.5,0,0,1,.29.12.38.38,0,0,1,.19.29.5.5,0,0,1-.1.28.41.41,0,0,1-.35.16A.56.56,0,0,1,173.59,78.72ZM174,52.34l.19,0c.15,0,.22.12.22.25a.89.89,0,0,1,0,.19.26.26,0,0,1-.28.22l-.16,0a.32.32,0,0,1-.22-.32.27.27,0,0,1,0-.12C173.78,52.42,173.87,52.34,174,52.34Zm0-2.47v0c0-.11.08-.16.16-.16s0,0,.06.06.13.06.13.13a.09.09,0,0,1,0,.06c0,.07,0,.1-.1.1l-.12,0A.13.13,0,0,1,174,49.87Zm1.4,21.71a.45.45,0,0,1,.35.19.47.47,0,0,1,.16.32.57.57,0,0,1-.16.31.53.53,0,0,1-.35.13.45.45,0,0,1-.32-.16.59.59,0,0,1-.16-.32.54.54,0,0,1,.19-.34A.46.46,0,0,1,175.37,71.58ZM175,33v-.1a.17.17,0,0,1,.19-.16h.09a.21.21,0,0,1,.16.19V33c0,.12-.11.19-.19.19h-.06C175,33.19,175,33.12,175,33ZM198.54,38a.58.58,0,0,1,0,.19c0,.46-.22.7-.67.7a.63.63,0,0,1-.7-.67.48.48,0,0,1,0-.22h-14v9h14.28v4.32h.1c.12,0,.2.08.22.25v0c0,.13-.08.2-.22.22h-.1v2H186.44a.3.3,0,0,1,.07.19.31.31,0,0,1,0,.13c-.07.17-.15.25-.26.25l-.19,0a.3.3,0,0,1-.22-.29.33.33,0,0,1,0-.15.13.13,0,0,1,0-.1h-1.36a.68.68,0,0,1-.06.29.55.55,0,0,1-.54.47,1.1,1.1,0,0,1-.32-.06.65.65,0,0,1-.35-.25v4.22h17v6.76H176.45v-34h23.83V38ZM178.19,25.11a.6.6,0,0,1,.64.67.62.62,0,0,1-.67.67c-.46,0-.7-.25-.7-.67A.64.64,0,0,1,178.19,25.11Zm-.25,41.68a.37.37,0,0,1,.32.19.47.47,0,0,1,.09.28.35.35,0,0,1-.19.29.57.57,0,0,1-.25.06.38.38,0,0,1-.32-.16.52.52,0,0,1-.06-.22.39.39,0,0,1,.19-.35A.4.4,0,0,1,177.94,66.79Zm1.81-41.39a.12.12,0,0,1,.09.13v.06a.12.12,0,0,1-.12.09.14.14,0,0,1-.13-.15v0C179.61,25.43,179.66,25.4,179.75,25.4Zm.54-.35h-.1c-.12,0-.19-.11-.19-.19v-.1c0-.14.1-.22.22-.22h.1a.28.28,0,0,1,.16.22v.1C180.46,25,180.39,25.05,180.29,25.05Zm2.54-2.41a.69.69,0,0,1,0,.22c-.1.34-.28.51-.53.51a1.15,1.15,0,0,1-.26,0c-.36-.07-.54-.26-.54-.58a.68.68,0,0,1,0-.19.57.57,0,0,1,.57-.5,1.15,1.15,0,0,1,.26,0Q182.83,22.19,182.83,22.64Zm-.64,2.89v.06c0,.06-.08.09-.13.09h0q-.09,0-.09-.09v-.06c0-.07.05-.1.09-.1h0C182.15,25.45,182.19,25.48,182.19,25.53Zm.19-6.1v0a.11.11,0,0,1,.1-.06h.06a.05.05,0,0,1,.06.06v.06c0,.09,0,.13-.09.13h0C182.41,19.57,182.38,19.52,182.38,19.43Zm1.14-.47a.13.13,0,0,1,.1,0c.13,0,.19.09.19.16a.23.23,0,0,1,0,.09.18.18,0,0,1-.19.16h-.07a.21.21,0,0,1-.15-.19v-.06C183.41,19,183.46,19,183.52,19Zm.29,21.8h.06a.17.17,0,0,1,.1.16V41a.18.18,0,0,1-.16.1h-.06a.18.18,0,0,1-.13-.16v-.07A.28.28,0,0,1,183.81,40.76ZM185,42.47a.5.5,0,0,1,0,.16.33.33,0,0,1-.31.26.2.2,0,0,1-.13,0,.29.29,0,0,1-.22-.28.55.55,0,0,1,0-.16.25.25,0,0,1,.25-.22l.19,0A.25.25,0,0,1,185,42.47Zm.16-.89-.16,0a.31.31,0,0,1-.22-.28.69.69,0,0,1,0-.22c.05-.15.13-.23.26-.23l.22,0c.17,0,.25.14.25.29a.63.63,0,0,1,0,.19A.34.34,0,0,1,185.14,41.58Zm.7,13a1,1,0,0,1,0,.19.45.45,0,0,1-.38.25l-.16,0a.36.36,0,0,1-.29-.35.73.73,0,0,1,0-.16.35.35,0,0,1,.35-.28.29.29,0,0,1,.15.06C185.74,54.34,185.84,54.45,185.84,54.6Zm-.35-11.08v0a.09.09,0,0,1-.09.07h0a.1.1,0,0,1-.07-.1v0a.1.1,0,0,1,.1-.06h0A.1.1,0,0,1,185.49,43.52ZM186.22,55a.12.12,0,0,1-.06.1c0,.06,0,.09-.1.09a.12.12,0,0,1-.09,0c-.09,0-.13-.06-.13-.13a.09.09,0,0,1,0-.06.14.14,0,0,1,.13-.1h.06C186.17,54.9,186.22,55,186.22,55Zm1-39.86c0,.23-.14.37-.41.41a.41.41,0,0,1-.16,0c-.24,0-.37-.14-.42-.41a.38.38,0,0,1,0-.16c0-.23.14-.37.42-.41a.33.33,0,0,1,.15,0c.24,0,.37.13.42.41A.35.35,0,0,1,187.24,15.15Zm-.7,1.9a.13.13,0,0,1,.13.1v.06a.18.18,0,0,1-.1.16h0c-.08,0-.14-.05-.16-.16v0c0-.07,0-.11.13-.13Zm1,53.92c.3,0,.56.2.8.58a1.23,1.23,0,0,1,.19.6.89.89,0,0,1-.54.76,1.14,1.14,0,0,1-.6.19,1,1,0,0,1-.8-.54,1.63,1.63,0,0,1-.16-.63.94.94,0,0,1,.54-.76A1.12,1.12,0,0,1,187.52,71Zm.7-52.71c0,.46-.24.7-.66.7s-.7-.26-.7-.7a.62.62,0,0,1,.7-.67A.6.6,0,0,1,188.22,18.26ZM187.14,12A.15.15,0,0,1,187,12a.19.19,0,0,1-.13-.19.29.29,0,0,1,.09-.16c.05-.06.09-.09.13-.09a.19.19,0,0,1,.16.09.22.22,0,0,1,.1.16.22.22,0,0,1-.07.16A.19.19,0,0,1,187.14,12ZM189,12V12c.07-.25.19-.38.38-.38h.07c.25,0,.38.17.38.38V12c-.05.25-.17.38-.38.38h-.07C189.08,12.38,189,12.25,189,12Zm.45,63.06h-.07a.28.28,0,0,1-.31-.29v-.09c0-.17.1-.26.31-.29h.07c.17,0,.27.11.31.32v.06C189.71,75,189.61,75.08,189.4,75.1ZM189.9,58v0s0-.06.1-.06h0a.05.05,0,0,1,.06.06c0,.09,0,.13-.09.13S189.9,58.09,189.9,58Zm.61-40.92a.28.28,0,0,1-.13,0,.23.23,0,0,1,0-.09.11.11,0,0,1,.06-.1.21.21,0,0,1,.13,0s.05,0,.09.06,0,0,0,.07a.11.11,0,0,1-.07.09A.12.12,0,0,1,190.51,17.11Zm.35,39h-.13c-.19,0-.3-.11-.32-.35v-.09c0-.17.11-.28.32-.32h.06a.36.36,0,0,1,.38.32v.06C191.17,56,191.07,56.13,190.86,56.15Zm.19,1.4H191a.32.32,0,0,1-.35-.32v-.06c0-.17.11-.29.32-.35H191c.16,0,.28.11.34.32v.06A.31.31,0,0,1,191.05,57.55Zm.35-43.93v.07c-.05.21-.16.31-.35.31H191c-.21,0-.31-.12-.31-.31v-.07a.33.33,0,0,1,.35-.31h.06C191.29,13.33,191.4,13.43,191.4,13.62Zm.66-2.79a.59.59,0,0,1-.63-.67.58.58,0,0,1,.66-.66c.43,0,.64.23.64.63v.07C192.73,10.62,192.51,10.83,192.06,10.83Zm.1,45.13h0c-.07,0-.11-.05-.13-.16v-.06c0-.06,0-.1.13-.1h.06c.06,0,.1,0,.13.13S192.26,56,192.16,56Zm.63-37.77v-.06A.21.21,0,0,1,193,18h.07a.22.22,0,0,1,.16.19v.1a.19.19,0,0,1-.2.16H193A.25.25,0,0,1,192.79,18.19Zm1,3.94h-.06c-.38,0-.58-.21-.6-.64a.58.58,0,0,1,.66-.66c.45,0,.68.21.7.63S194.21,22.13,193.74,22.13Zm4,51.73h-.16q-.51,0-.57-.57v-.16q0-.51.57-.6h.16q.51,0,.6.6v.16Q198.31,73.8,197.71,73.86ZM197.46,41c0,.09,0,.13-.13.13a.12.12,0,0,1-.13-.13c0-.08.05-.12.13-.12S197.46,40.93,197.46,41ZM199,26.19a.92.92,0,0,1-.34-.7,1.13,1.13,0,0,1,1.07-1.08,1.13,1.13,0,0,1,.7.32,1,1,0,0,1,.38.73,1.06,1.06,0,0,1-.35.7,1,1,0,0,1-.73.38A1.15,1.15,0,0,1,199,26.19Zm0,14.51c0-.17.08-.26.23-.26s.28.08.28.22-.08.29-.25.29S199,40.87,199,40.7Zm.48.82a.12.12,0,0,1,.13-.13c.08,0,.12,0,.12.13s0,.13-.12.13S199.52,41.61,199.52,41.52Zm1.3,25.14h-.06c-.11,0-.17-.08-.19-.22s.07-.23.22-.23.25.07.25.19S201,66.66,200.82,66.66Zm.86-25h-.1c-.42,0-.63-.22-.63-.67s.2-.63.6-.63h.1q.63,0,.63.6v.07Q202.28,41.68,201.68,41.68Zm.57,2.92a.6.6,0,0,1,.64.67.6.6,0,0,1-.67.69c-.45,0-.67-.22-.67-.6v-.09C201.55,44.82,201.78,44.6,202.25,44.6Zm0,5.3c0-.15.08-.23.25-.25s.22.08.22.25a.19.19,0,0,1-.22.22C202.3,50.12,202.22,50.05,202.22,49.9Zm2.35-30.34a.91.91,0,0,1,.12.44,1,1,0,0,1-.34.73,1.1,1.1,0,0,1-.73.35,1,1,0,0,1-.73-.38.9.9,0,0,1-.35-.7,1.06,1.06,0,0,1,.41-.76,1.67,1.67,0,0,1,.57-.32c0-.38.22-.58.67-.6a.59.59,0,0,1,.66.67A.6.6,0,0,1,204.57,19.56Zm.76,51.54h-.06a.28.28,0,0,1-.32-.28v-.07c0-.19.1-.29.32-.31h.09c.15,0,.23.1.25.31v.1C205.61,71,205.52,71.08,205.33,71.1Zm0-3.87a.31.31,0,0,1,.35-.35.31.31,0,0,1,.35.35v.06c0,.19-.12.3-.35.32S205.3,67.48,205.3,67.23Zm.95-39.13a.47.47,0,0,1-.16-.32.49.49,0,0,1,.13-.32.41.41,0,0,1,.63,0,.45.45,0,0,1,.19.35.69.69,0,0,1-.47.47A.39.39,0,0,1,206.25,28.1Zm.41,18c.21,0,.32.1.32.29s-.11.28-.32.28-.25-.1-.25-.32A.22.22,0,0,1,206.66,46.06Zm.1-31.23v-.1q.06-.57.57-.57h.09a.57.57,0,0,1,.58.61v.09a.54.54,0,0,1-.58.54h-.12A.53.53,0,0,1,206.76,14.83Zm.66,49.23a.1.1,0,0,1-.06-.07.25.25,0,0,1,.06-.16.11.11,0,0,1,.1-.06l.06,0a.22.22,0,0,1,.07.1c0,.06,0,.1,0,.12a.09.09,0,0,1-.09.07Zm1-46.12c0-.19.08-.29.25-.29s.32.09.32.26a.29.29,0,0,1-.32.32C208.46,18.23,208.38,18.13,208.38,17.94Zm.79,36h-.06c-.13,0-.19-.07-.19-.22s.08-.22.25-.22.22.06.22.19S209.32,53.93,209.17,53.93Zm.57-29q-.63,0-.63-.6v-.06c0-.43.2-.64.6-.64h.06c.45,0,.67.2.67.6v.07C210.44,24.71,210.21,24.92,209.74,24.92Zm-.25,36.37a.53.53,0,0,1-.32-.47.78.78,0,0,1,.09-.32.55.55,0,0,1,.45-.32.93.93,0,0,1,.38.1.54.54,0,0,1,.29.44,1,1,0,0,1-.1.38.58.58,0,0,1-.48.29A.65.65,0,0,1,209.49,61.29ZM211,67.52c-.09,0-.13-.1-.13-.16v0a.15.15,0,0,1,.16-.12h0a.13.13,0,0,1,.1.12v.07c0,.08-.07.13-.13.13Zm1-.58a.61.61,0,0,1-.69-.66c0-.43.23-.65.69-.67s.65.22.67.67S212.44,66.92,212,66.94Zm1.15-37.76v.09c0,.4-.22.6-.64.6h-.09c-.41,0-.61-.21-.61-.63s.22-.7.64-.7h.09C212.94,28.54,213.14,28.75,213.14,29.18Zm5.49.79a.5.5,0,0,1,.28-.83.5.5,0,0,1,.35.16.43.43,0,0,1,.16.29.49.49,0,0,1-.16.35.41.41,0,0,1-.63,0Z" transform="translate(-9.73 -7.78)"/><path class="cls-1" d="M205.46,33.62l17.07,15.87V31.17h6.89v34l-16.6-15.43s-.06.06-.13.06-.12,0-.12-.15a.1.1,0,0,1,.06-.1l-3-2.79V65.17h-2.28a.74.74,0,0,1,.09.38v.06c0,.4-.22.61-.66.64s-.67-.24-.67-.7a.65.65,0,0,1,.1-.38h-3.37V34.06l-15,10.38,15-11.14s0,0,0-.06l-10,1.11,9.9-1.43v-.13l-17.26-5.42,17.23,4.82-7.58-6.76,6.47,5.4a.2.2,0,0,1,.22-.19h.07a.17.17,0,0,1,.19.19.24.24,0,0,1-.16.25l.95.79v-.7l-6.6-12.5,7.46,12.79.28-9.3.07,9.4a1.16,1.16,0,0,1,.32.06l8.72-16.22-8.15,16.47c.06.07.1.1.12.1l0,0L212.76,27l-7.53,5.17.1.19,17.26-2.09L205.49,33a1.59,1.59,0,0,1,0,.29L216.34,36ZM194.38,47a1.06,1.06,0,0,1,.35.73,1.15,1.15,0,0,1-.32.7,1.11,1.11,0,0,1-.76.38,1.08,1.08,0,0,1-.7-.35,1,1,0,0,1-.38-.7,1.15,1.15,0,0,1,.35-.73,1.09,1.09,0,0,1,.73-.38A1.12,1.12,0,0,1,194.38,47Zm3.24,20.6c0,.42-.24.65-.7.67a.67.67,0,1,1,0-1.34A.63.63,0,0,1,197.62,67.61Zm3.84-44.37a.56.56,0,0,1,.31.48,1,1,0,0,1-.09.35.49.49,0,0,1-.45.28,1.08,1.08,0,0,1-.38-.09.5.5,0,0,1-.28-.45,1.08,1.08,0,0,1,.09-.38.56.56,0,0,1,.48-.28A.82.82,0,0,1,201.46,23.24Zm1.11,43.35c0,.2-.09.29-.26.29s-.31-.08-.31-.25a.28.28,0,0,1,.31-.32C202.48,66.31,202.57,66.4,202.57,66.59Zm3.17,6.83c0,.21-.08.32-.25.32s-.32-.1-.32-.29.11-.29.32-.29S205.74,73.25,205.74,73.42Zm1.18-4.22a.37.37,0,0,1-.42.41h-.06c-.23,0-.35-.14-.35-.41v-.07c0-.23.14-.34.41-.34S206.92,68.92,206.92,69.2Zm1.81-34.53c0,.12-.08.2-.23.22s-.25-.08-.25-.22.08-.26.25-.26S208.73,34.5,208.73,34.67Zm1.9,39.07a.22.22,0,0,1-.25.25c-.22,0-.32-.08-.32-.25s.08-.32.25-.32A.28.28,0,0,1,210.63,73.74Zm2.73-52a.09.09,0,0,1,0,.06.31.31,0,0,1,0,.13.19.19,0,0,1-.13.06l-.06,0s-.07-.07-.07-.09a.13.13,0,0,1,0-.1.1.1,0,0,1,.09-.06Zm0,11.52h-.06c-.13,0-.2-.08-.23-.25v0c0-.12.08-.2.23-.22h.06a.22.22,0,0,1,.25.19C213.64,33.14,213.56,33.25,213.39,33.27Zm2.06-14.73a.3.3,0,0,1-.35.35c-.23,0-.34-.11-.34-.35v-.06c0-.17.11-.26.34-.29A.31.31,0,0,1,215.45,18.54Zm-.16,61.1h-.06a.33.33,0,0,1-.35-.29v-.06a.34.34,0,0,1,.32-.35h.06c.17,0,.28.11.32.32v.06A.31.31,0,0,1,215.29,79.64Zm.13-65h.1c.17,0,.26.1.28.29v.09a.27.27,0,0,1-.28.29h-.13c-.15,0-.23-.1-.25-.29v-.13C215.14,14.78,215.23,14.69,215.42,14.67Zm1.78,47.74h.06c.38,0,.58.21.61.63a.6.6,0,0,1-.67.67.63.63,0,0,1-.7-.64C216.5,62.63,216.73,62.41,217.2,62.41Zm1.59-33.81h0c.06,0,.1,0,.12.13v.06c0,.07,0,.1-.12.1h-.07c-.06,0-.1,0-.12-.13A.14.14,0,0,1,218.79,28.6ZM219.9,27H220a.31.31,0,0,1,.35.31v.07c0,.19-.11.3-.32.35h-.06c-.17,0-.28-.11-.32-.32v-.07A.32.32,0,0,1,219.9,27Zm0-7.88H220c.11,0,.17.08.19.23a.2.2,0,0,1-.22.22c-.17,0-.25-.06-.25-.19S219.78,19.11,219.93,19.11Zm.19,9.27h.09c.19,0,.3.12.32.35v.1c0,.19-.1.3-.32.35h-.06a.37.37,0,0,1-.38-.35v-.07A.34.34,0,0,1,220.12,28.38Zm.92-1.84v0c0,.05,0,.07-.1.07h0s-.06,0-.06-.07,0-.16.09-.16S221,26.46,221,26.54ZM222,24h-.06a.15.15,0,0,1-.16-.12c0-.13.06-.2.19-.2H222c.07,0,.1.06.1.16v.07C222.09,24,222,24,222,24Zm1,52.08h-.06a.36.36,0,0,1-.38-.34v-.07c0-.21.13-.34.38-.38h.06c.19,0,.32.13.38.38v.07C223.32,75.93,223.2,76,222.94,76.08Zm1.34-49.22h.06c.11,0,.16.07.16.22a.2.2,0,0,1-.22.22c-.17,0-.26-.06-.26-.19S224.11,26.86,224.28,26.86Zm.7,48.78a.27.27,0,0,1-.07-.16.19.19,0,0,1,.1-.16.18.18,0,0,1,.16-.09.25.25,0,0,1,.15.09.3.3,0,0,1,.07.16.26.26,0,0,1-.1.19.31.31,0,0,1-.16.07A.19.19,0,0,1,225,75.64Zm.09,3c0-.28.18-.42.41-.42a.34.34,0,0,1,.16,0c.28,0,.41.18.41.41a.41.41,0,0,1,0,.16c0,.27-.18.41-.41.41a.38.38,0,0,1-.16,0c-.27,0-.41-.18-.41-.41A.35.35,0,0,1,225.07,78.69Zm.64-55.39a.14.14,0,0,1-.16.16h-.07a.11.11,0,0,1-.12-.12v-.07a.16.16,0,0,1,.15-.16C225.62,23.11,225.68,23.18,225.71,23.3Zm.44-1.58h.06c.24,0,.36.1.38.31v.1c0,.21-.11.33-.35.35h-.09c-.19,0-.31-.12-.35-.35v-.06C225.8,21.88,225.92,21.76,226.15,21.72Zm2,49.35a.36.36,0,0,1,.35-.29.43.43,0,0,1,.22.07c.19.08.29.19.29.32a.88.88,0,0,1-.07.25.34.34,0,0,1-.35.25l-.19,0a.4.4,0,0,1-.28-.38A.63.63,0,0,1,228.15,71.07Zm1.9-30q0,.15-.12.15c-.09,0-.13-.05-.13-.15s0-.13.13-.13S230.05,41,230.05,41.05Zm1.27,20.63a.83.83,0,0,1,.29.57.87.87,0,0,1-.26.57.81.81,0,0,1-.57.28.94.94,0,0,1-.57-.25.82.82,0,0,1-.32-.6.74.74,0,0,1,.29-.54.8.8,0,0,1,.57-.32A.79.79,0,0,1,231.32,61.68Zm.32-34.44v.06c0,.24-.14.36-.41.38s-.42-.13-.42-.41.14-.44.42-.44A.36.36,0,0,1,231.64,27.24Zm-.54,10.89c0,.08,0,.12-.13.12a.11.11,0,0,1-.12-.12c0-.11,0-.16.12-.16S231.1,38,231.1,38.13Zm.25,2.15c0,.09,0,.13-.12.13s-.16,0-.16-.13.05-.12.16-.12A.11.11,0,0,1,231.35,40.28Zm.54-4.34a.11.11,0,0,1-.12.12c-.09,0-.13,0-.13-.12s0-.13.13-.13S231.89,35.85,231.89,35.94Zm.8-4.13c0,.21-.1.32-.29.32a.29.29,0,0,1-.32-.32.26.26,0,0,1,.29-.29C232.58,31.52,232.69,31.62,232.69,31.81Zm.63,4.67h.07q.6,0,.63.66a.59.59,0,0,1-.67.67c-.44,0-.66-.21-.66-.64S232.9,36.48,233.32,36.48Zm3.56-10.83a.38.38,0,0,1-.13-.22v-.06c0-.19.11-.3.32-.32h.09c.15,0,.26.09.32.28a.3.3,0,0,1-.1.23.23.23,0,0,1,.16.25v.1c0,.14-.09.23-.28.25h-.07a.3.3,0,0,1-.34-.29A1,1,0,0,1,236.88,25.65Zm.85.67c0,.08,0,.13-.12.13a.12.12,0,0,1-.13-.13c0-.11,0-.16.13-.16S237.73,26.21,237.73,26.32Zm5.05-1.62c-.3,0-.44-.13-.44-.38s.13-.44.41-.44a.39.39,0,0,1,.44.41C243.19,24.54,243.06,24.68,242.78,24.7Z" transform="translate(-9.73 -7.78)"/></svg>