<svg id="Lag_1" data-name="Lag 1" xmlns="http://www.w3.org/2000/svg" viewBox="0 0 233.47 73.73"><defs><style>.cls-1{fill:#c54245;}</style></defs><title>nisseven-2</title><path class="cls-1" d="M9.73,73.15c0-.19.08-.3.25-.32s.3.11.32.32-.11.25-.32.25A.22.22,0,0,1,9.73,73.15ZM10.42,42c0-.17.09-.25.26-.25s.22.08.22.25-.07.2-.22.22A.24.24,0,0,1,10.42,42Zm4,16.16c0-.09,0-.13.13-.13s.16,0,.16.13-.06.12-.16.12S14.39,58.19,14.39,58.11ZM29.34,37l14.5,13.49v-7L40.26,46l3.58-2.67V37.06l-5-1.58,5,1.39v-4.7h2.67l-1.08-2,1.18,2h4.12v5.37l5.08-9.43-5,10.13.06.06,4.76-3L51,38.46a.35.35,0,0,0,.06.09l10.63-1.3L51.14,38.94v.15l6.67,1.69-6.76-1.46,8.51,8.38L50.8,39.57l-.07,0V40l2.35,5.21-2.35-4.8V66.17L30.93,47.76v13a.83.83,0,0,1,.19.51.7.7,0,0,1-.19.54v4.38H24.14V40.78L22,44.87l2.19-5.24-6,3.91,5.62-3.91L15,40.87l8.69-1.49-6.79-2.63,7.21,2.19v-.16l-2.77-5,2.7,4.51-.73-4.89.48,1.87h.06c.09,0,.13.06.13.16s0,.13-.13.13l.26,1V32.17l3.39,3.15L30,32l-2.38,3.42L29.28,37l2.22-1ZM15.79,55v0q0-.12.09-.12c.09,0,.13,0,.13.15v0a.08.08,0,0,1-.09.09C15.83,55.12,15.79,55.08,15.79,55ZM18,63.66h-.07c-.4,0-.61-.21-.63-.64s.22-.69.66-.69.7.22.7.66A.59.59,0,0,1,18,63.66Zm.66,4.66c0-.19.09-.28.26-.28s.31.09.31.28-.09.29-.28.29A.25.25,0,0,1,18.61,68.32ZM23,37.57a.12.12,0,0,1,.13-.13c.1,0,.16.05.16.13s-.06.13-.16.13S23,37.66,23,37.57Zm.29,8.7V46.2c0-.21.12-.33.38-.38a.37.37,0,0,1,.41.41c0,.3-.14.45-.41.45S23.25,46.54,23.25,46.27Zm.25-13.05c0-.08,0-.12.13-.12s.16,0,.16.12a.14.14,0,0,1-.16.16C23.54,33.38,23.5,33.33,23.5,33.22ZM27,73.28h-.06c-.11,0-.16-.07-.16-.19s.07-.26.22-.26.26.08.26.22S27.16,73.28,27,73.28ZM27.34,30a.3.3,0,0,1,.29-.34A.31.31,0,0,1,28,30a.31.31,0,0,1-.32.35C27.45,30.33,27.34,30.22,27.34,30Zm1.91-1.68c-.09,0-.13,0-.13-.12s0-.1.13-.1.09,0,.09.1S29.31,28.3,29.25,28.3Zm2.12,44.85h-.06a.32.32,0,0,1-.35-.32v-.06c0-.17.1-.29.32-.35h.06c.17,0,.29.1.35.32v.06A.32.32,0,0,1,31.37,73.15Zm1.11-1.59h0c-.06,0-.11,0-.13-.16v-.06c0-.06,0-.1.13-.1h.06c.07,0,.11.05.13.13S32.59,71.56,32.48,71.56Zm-.06-19c0-.17.07-.26.22-.28s.29.09.29.28-.08.29-.23.29S32.42,52.77,32.42,52.58Zm1.17-1.36v0c0,.08,0,.13-.09.13s-.13-.06-.13-.16v0c0-.07,0-.1.1-.1S33.59,51.13,33.59,51.22Zm.48-13.49H34c-.38,0-.59-.21-.61-.64a.59.59,0,0,1,.67-.66.61.61,0,0,1,.7.63C34.77,37.51,34.53,37.73,34.07,37.73Zm3.71,18.88c0,.09,0,.13-.12.13s-.13,0-.13-.13,0-.12.13-.12A.11.11,0,0,1,37.78,56.61Zm.1,10.26h.06c.13,0,.2.08.22.25v0c0,.13-.07.2-.22.22h-.06a.23.23,0,0,1-.26-.19A.27.27,0,0,1,37.88,66.87Zm1.52,7.67a1.07,1.07,0,0,1-.38-.72,1,1,0,0,1,.35-.7.9.9,0,0,1,1.46-.07,1.06,1.06,0,0,1,.35.73,1.15,1.15,0,0,1-.32.73,1.1,1.1,0,0,1-.76.35A1.12,1.12,0,0,1,39.4,74.54Zm0-18.24c0-.17.07-.26.22-.26s.29.08.29.22-.09.29-.26.29A.22.22,0,0,1,39.37,56.3Zm.48.82c0-.08,0-.13.12-.13a.12.12,0,0,1,.13.13c0,.09,0,.13-.13.13S39.85,57.21,39.85,57.12Zm.79-30.72c0-.17.09-.26.28-.26s.29.09.29.26-.08.32-.25.32A.28.28,0,0,1,40.64,26.4Zm1.9,39.1c0-.15.09-.23.26-.25s.22.08.22.25a.19.19,0,0,1-.22.22C42.63,65.72,42.54,65.65,42.54,65.5Zm1.15-49.35a.56.56,0,0,1-.38-.19.49.49,0,0,1-.16-.35.51.51,0,0,1,.19-.35.5.5,0,0,1,.35-.19.55.55,0,0,1,.38.19.67.67,0,0,1,.12.35.53.53,0,0,1-.5.54Zm1.84,10.57c0-.22.08-.32.25-.32s.32.09.32.28a.28.28,0,0,1-.32.32C45.61,27,45.53,26.91,45.53,26.72Zm4,42.81h-.06c-.13,0-.19-.07-.19-.22s.08-.22.25-.22.23.06.23.19S49.64,69.53,49.49,69.53Zm.39-46.08a.26.26,0,0,1,0-.1c0-.17.12-.25.25-.25h.13c.19,0,.28.14.28.28a.13.13,0,0,1,0,.1.28.28,0,0,1-.28.25h-.13C50,23.69,49.88,23.6,49.88,23.45ZM50.19,22v0a.09.09,0,0,1,.07,0h0a0,0,0,0,1,0,0v0s0,.06,0,.06h0S50.19,22,50.19,22Zm1,.22h.07c.06,0,.09.05.09.1v.06a.12.12,0,0,1-.12.09h0q-.09,0-.09-.09v-.06C51.07,22.27,51.1,22.24,51.14,22.24Zm.26-.16s0,0,0-.06v0s0,0,.06,0a.05.05,0,0,1,.06.06v0A.12.12,0,0,1,51.4,22.08Zm.79.16a.32.32,0,0,1-.32-.35.29.29,0,0,1,.32-.32c.23,0,.35.11.35.32A.31.31,0,0,1,52.19,22.24Zm1.59-3.93v.06s0,.06-.1.06h0q-.09,0-.09-.09v0c0-.07,0-.1.09-.1h0C53.75,18.23,53.78,18.26,53.78,18.31Zm1.78,32.56h-.13c-.19,0-.3-.12-.32-.35v-.1c0-.17.11-.27.32-.31h.06a.35.35,0,0,1,.38.31v.07C55.87,50.72,55.77,50.85,55.56,50.87Zm0-29a.61.61,0,0,1,.66-.67c.43,0,.65.22.67.67a.62.62,0,0,1-.67.7C55.83,22.53,55.61,22.29,55.59,21.83ZM68.92,46.49a.28.28,0,0,1,.32-.32h.06c.17,0,.26.11.28.32s-.11.32-.34.32A.28.28,0,0,1,68.92,46.49Z" transform="translate(-9.73 -8.78)"/><path class="cls-1" d="M53.4,58.61V33.29a.31.31,0,0,1-.35-.35v-.07c0-.19.12-.29.35-.31v-.39h6.79v5.91h.1c.06,0,.09,0,.09.13v.09c0,.06,0,.1-.13.1h-.06V60.29l3-6.09-3,6.7v.92L72.25,50.65,61.4,61.34a.64.64,0,0,1,.44.64V62l8-1.75-8,2a.65.65,0,0,1-.64.31h-.06a.76.76,0,0,1-.32-.06l-.28.06a1,1,0,0,1,0,.23L75.2,65.21,60.38,63.37a.35.35,0,0,1-.09.16L66.76,68l-6.57-4.16v.28l.51,1.05h.12c.07,0,.1,0,.1.1s0,.12-.1.12L67,78,60.19,65.31v.86h-.95l0,6-.19-6H57.78l-5.24,9,4.76-9H55.43l-3.84,3.2,3.59-3.2H53.4v-1.3L43.31,67.69,53.4,64.52V62.26l-3.81-.54,3.81.42V59l-8.1-6ZM45.91,71V70.9c0-.41.21-.61.63-.61h.1c.4,0,.6.21.6.64s-.21.7-.63.7h-.1C46.11,71.63,45.91,71.41,45.91,71Zm1.14-37.77a.62.62,0,0,1,.7.67c0,.42-.23.64-.7.67s-.64-.23-.67-.67A.62.62,0,0,1,47.05,33.22Zm1.05-.57a.19.19,0,0,1,.12.16v0a.14.14,0,0,1-.15.13h0a.13.13,0,0,1-.09-.13v-.06c0-.09.06-.13.13-.13Zm1.46,6.22a.57.57,0,0,1,.32.48.87.87,0,0,1-.1.32.54.54,0,0,1-.44.31,1.08,1.08,0,0,1-.39-.09.54.54,0,0,1-.28-.45,1.08,1.08,0,0,1,.09-.38.56.56,0,0,1,.48-.28A.78.78,0,0,1,49.56,38.87Zm.32,7.36h.06c.13,0,.19.08.19.23s-.09.22-.25.22-.23-.06-.23-.19S49.73,46.23,49.88,46.23Zm.79,36c0,.19-.09.28-.26.28s-.31-.08-.31-.25a.28.28,0,0,1,.31-.32C50.58,81.94,50.67,82,50.67,82.23Zm.95-46.12s.06,0,.06.06a.21.21,0,0,1-.06.16.09.09,0,0,1-.09.07.08.08,0,0,1-.07,0s-.06-.07-.06-.09a.21.21,0,0,1,0-.13.1.1,0,0,1,.1-.06Zm1.17,36a.45.45,0,0,1,.16.32.56.56,0,0,1-.12.32.52.52,0,0,1-.35.15.5.5,0,0,1-.29-.12.46.46,0,0,1-.19-.35.67.67,0,0,1,.48-.48A.37.37,0,0,1,52.79,72.07Zm.93-43h.06a.3.3,0,0,1,.32.29v.06c0,.19-.11.3-.32.32h-.1c-.14,0-.23-.1-.25-.32v-.09C53.43,29.17,53.52,29.09,53.72,29.06Zm1.8,52.12v.06c0,.38-.22.58-.66.61a.67.67,0,0,1,0-1.34A.6.6,0,0,1,55.52,81.18ZM60,74a1,1,0,0,1,.35.7,1.15,1.15,0,0,1-1.08,1.08,1.12,1.12,0,0,1-.7-.32,1,1,0,0,1-.38-.73,1.08,1.08,0,0,1,.35-.69,1,1,0,0,1,.73-.38A1.11,1.11,0,0,1,60,74Zm.54-11.64a.15.15,0,0,1,0-.1l-.13.13Zm.79-36h.16q.51,0,.57.57V27c0,.34-.19.54-.57.61h-.16c-.34,0-.54-.2-.6-.61v-.16Q60.73,26.38,61.33,26.3Zm.16,22.6h-.06c-.13,0-.2-.08-.22-.25v0a.22.22,0,0,1,.22-.23h.06a.24.24,0,0,1,.26.19A.28.28,0,0,1,61.49,48.9ZM62,65.75c0,.17-.08.26-.22.26a.2.2,0,0,1-.23-.22.21.21,0,0,1,.23-.23A.21.21,0,0,1,62,65.75Zm-.41-6.6a.11.11,0,0,1,.12-.12c.09,0,.13,0,.13.12s0,.13-.13.13S61.59,59.24,61.59,59.15ZM64,37.67c0,.12,0,.19-.16.19h-.06c-.09,0-.13-.06-.13-.16v-.07c0-.06.05-.1.16-.12A.18.18,0,0,1,64,37.67Zm.44-1.59h.07a.34.34,0,0,1,.38.35v.09c0,.21-.12.33-.35.35h-.1c-.19,0-.3-.11-.35-.35v-.06A.37.37,0,0,1,64.44,36.08Zm.86,42h.06c.38,0,.58.21.61.63a.59.59,0,0,1-.67.67.61.61,0,0,1-.7-.64C64.6,78.26,64.83,78,65.3,78Zm.48-13.49v0c0-.09,0-.13.09-.13s.13,0,.13.16v0c0,.06,0,.09-.1.09A.11.11,0,0,1,65.78,64.55ZM67,63.18c0,.17-.07.27-.22.29a.26.26,0,0,1-.29-.29c0-.19.08-.28.22-.28S67,63,67,63.18Zm-.06-19h0c.06,0,.1.06.13.16v.07c0,.06,0,.09-.13.09h-.07c-.06,0-.1,0-.12-.13S66.78,44.2,66.89,44.2ZM68,42.62h.06a.31.31,0,0,1,.35.31V43c0,.17-.11.28-.32.35H68c-.17,0-.29-.11-.35-.32V43A.31.31,0,0,1,68,42.62ZM68.19,44h.12c.2,0,.3.12.32.35v.1c0,.17-.1.27-.32.32h-.06a.36.36,0,0,1-.38-.32v-.07A.33.33,0,0,1,68.19,44Z" transform="translate(-9.73 -8.78)"/><path class="cls-1" d="M47.4,39.57a.61.61,0,0,1,.67-.67c.42,0,.64.23.66.67a.62.62,0,0,1-.66.7C47.64,40.27,47.42,40,47.4,39.57Zm4.73,21.77c0-.19.08-.29.25-.31a.3.3,0,0,1,.32.31c0,.17-.11.26-.32.26S52.13,61.51,52.13,61.34Zm.7-31.2a.22.22,0,0,1,.25-.25c.15,0,.22.08.22.25s-.07.2-.22.23A.23.23,0,0,1,52.83,30.14ZM78.12,66.26l4.54,4.48L78,66.42a.11.11,0,0,1-.07,0,.18.18,0,0,1-.19-.16V66.2l-.12-.13c-.62.06-1.26.1-1.94.1s-1.3,0-1.94-.07l.64,1.37-.67-1.37A28,28,0,0,1,71,65.72l-.16,8-.16-8a21.07,21.07,0,0,1-4.44-1.49,10.28,10.28,0,0,1-1-.54l-7.08,4.89,6.8-5a11.73,11.73,0,0,1-2.26-1.59l1.46-1.52L62,60.58l2.19-.32.82-.85,1-1.21-4.57-1.43a.38.38,0,0,1-.16,0c-.15,0-.23,0-.25-.16l-4.86-1.52L61,56.46a.23.23,0,0,1,.25-.23c.21,0,.32.1.32.29v.09L66.28,58l1-1.11a4.23,4.23,0,0,0,1,.69L63.78,53.6,69,58l.07,0a6.26,6.26,0,0,0,.89.38L64.67,48.3l5.83,10,.23-6.45a10.8,10.8,0,0,1-5.46-3.39,8.51,8.51,0,0,1-2.38-6A9.15,9.15,0,0,1,63,41.25a9.54,9.54,0,0,1,4-6.6,14.85,14.85,0,0,1,8.7-2.48,22.26,22.26,0,0,1,9.52,2,14.37,14.37,0,0,1,3.59,2.32l-4.67,4.95c0-.12-.61-.49-1.84-1.11A15.42,15.42,0,0,0,75.71,39c-3.72,0-5.71,1-6,3.11v.44A2.12,2.12,0,0,0,70.31,44q1.56,1.76,5.4,1.75c.72,0,1.42,0,2.09.09a12.44,12.44,0,0,1,8.45,3.94,8.94,8.94,0,0,1,2.28,6,9.75,9.75,0,0,1-.09,1.37,8.84,8.84,0,0,1-4,6.51A13.68,13.68,0,0,1,77.9,66l.06.06h0C78.08,66.1,78.12,66.16,78.12,66.26Zm-21.33-20a.12.12,0,0,1,.13-.13c.11,0,.16,0,.16.13s0,.13-.16.13A.12.12,0,0,1,56.79,46.3Zm1.4-3.11v0c0-.09,0-.13.1-.13s.12,0,.12.16v0a.08.08,0,0,1-.09.09C58.23,43.31,58.19,43.27,58.19,43.19Zm2.16,8.66h-.06a.58.58,0,0,1-.64-.63c0-.47.22-.7.67-.7s.7.22.7.67A.59.59,0,0,1,60.35,51.85Zm1.14-8.31a1.13,1.13,0,0,1,.35.76,1.22,1.22,0,0,1-1.08,1.08,1,1,0,0,1-.7-.35.93.93,0,0,1-.38-.7,1,1,0,0,1,.35-.7,1,1,0,0,1,.73-.41A1.07,1.07,0,0,1,61.49,43.54ZM60.7,64.87c.29,0,.44.13.44.41s-.14.44-.41.44a.43.43,0,0,1,0-.85Zm3,9.36h-.06a.29.29,0,0,1-.32-.29v-.09c0-.17.11-.27.32-.29h.06c.17,0,.28.11.32.32v.06C64,74.11,63.92,74.21,63.71,74.23Zm1.65-48.47c0-.08,0-.12.13-.12s.16,0,.16.12-.05.13-.16.13A.12.12,0,0,1,65.36,25.76Zm.29,8.7V34.4c0-.21.13-.34.38-.38a.36.36,0,0,1,.41.41c0,.29-.14.44-.41.44S65.65,34.74,65.65,34.46Zm2.13-3.3a.22.22,0,0,1,.22-.25.22.22,0,0,1,.25.25c0,.15-.08.22-.25.22A.19.19,0,0,1,67.78,31.16Zm2.15,45h-.16q-.49,0-.57-.57v-.16c0-.34.19-.54.57-.61h.16c.34,0,.54.2.61.61v.16C70.54,76,70.34,76.15,69.93,76.2Zm.83-24.32,0,6.51a.54.54,0,0,1,.25.06l3.21-6A16.39,16.39,0,0,1,70.76,51.88ZM72.06,59,80.92,58a3.08,3.08,0,0,0,.85-1.78V56a2.79,2.79,0,0,0-.66-1.75q-1.56-1.74-5.4-1.74-.6,0-1.17,0l-3.05,6.15.06.07,6.1-3.87L71.74,58.9a.09.09,0,0,1,0,.06A1.77,1.77,0,0,1,72.06,59Zm1.3,10.34H73.3a.28.28,0,0,1-.32-.28V69c0-.19.11-.29.32-.31h.09c.15,0,.24.1.26.31v.1C73.65,69.27,73.55,69.35,73.36,69.37Zm.22,10.7a.84.84,0,0,1,1-.95h.06a.83.83,0,0,1,.92.92.89.89,0,0,1-1,1A.88.88,0,0,1,73.58,80.07Zm7.11-21.93-7,1.11.07.06a16.64,16.64,0,0,0,1.9.1C78,59.41,79.7,59,80.69,58.14ZM74.82,40.78a.26.26,0,0,1,.22-.29.26.26,0,0,1,.29.29c0,.19-.08.28-.22.28S74.82,41,74.82,40.78ZM76,39.41v0c0,.09,0,.13-.1.13s-.13,0-.13-.16v0a.09.09,0,0,1,.1-.1A.12.12,0,0,1,76,39.41Zm.47-13.49h-.06q-.57,0-.6-.63a.59.59,0,0,1,.66-.67.61.61,0,0,1,.7.64C77.17,25.7,76.94,25.92,76.47,25.92Zm.86,42h-.06a.35.35,0,0,1-.39-.35v-.09c0-.22.12-.33.35-.35h.1c.19,0,.31.11.35.35v.06A.37.37,0,0,1,77.33,67.88ZM79.2,27.45c0-.09,0-.13.13-.13s.16,0,.16.13a.14.14,0,0,1-.16.15C79.24,27.6,79.2,27.55,79.2,27.45Zm.26,2.19c0-.11,0-.16.12-.16s.13.05.13.16,0,.12-.13.12A.11.11,0,0,1,79.46,29.64ZM80.6,80.13v.07c0,.16-.11.28-.32.34h-.06a.3.3,0,0,1-.32-.31v-.1c0-.17.1-.27.32-.32h.06C80.47,79.81,80.58,79.92,80.6,80.13Zm-.41-35.32c0,.08,0,.12-.13.12s-.13,0-.13-.12,0-.13.13-.13A.12.12,0,0,1,80.19,44.81Zm.09,10.25h.06c.13,0,.2.08.23.25v0c0,.13-.08.2-.23.23h-.06a.22.22,0,0,1-.25-.19C80,55.19,80.11,55.08,80.28,55.06Zm.22-28.38c0-.08,0-.12.13-.12s.13,0,.13.12a.12.12,0,0,1-.13.13C80.54,26.81,80.5,26.77,80.5,26.68Zm.29,50.85h-.07c-.06,0-.09,0-.09-.16v0c0-.06,0-.11.13-.13a.16.16,0,0,1,.16.13C80.92,77.46,80.87,77.53,80.79,77.53Zm.66-3.87h-.06c-.1,0-.17-.08-.19-.23a.2.2,0,0,1,.22-.22c.17,0,.26.07.26.19S81.6,73.66,81.45,73.66Zm.07-8.1h.09c.07,0,.11,0,.13.13s0,.19-.16.19h-.09c-.07,0-.1,0-.1-.13v-.09C81.39,65.6,81.43,65.56,81.52,65.56Zm.25-21.07c0-.17.08-.25.22-.25s.29.07.29.22-.09.28-.25.28S81.77,44.66,81.77,44.49Zm.48.82c0-.08,0-.12.13-.12a.11.11,0,0,1,.12.12c0,.09,0,.13-.12.13S82.25,45.4,82.25,45.31Zm.13-18.72c0-.11.05-.16.15-.16s.13.05.13.16a.12.12,0,0,1-.13.13C82.43,26.72,82.38,26.67,82.38,26.59Zm1.3,51.35c-.07.19-.18.29-.35.29a.46.46,0,0,1-.23-.07c-.19-.06-.28-.17-.28-.31a.56.56,0,0,1,.06-.23c.09-.19.2-.28.35-.28l.19,0c.19.11.29.23.29.38A.63.63,0,0,1,83.68,77.94ZM83,24.21a.31.31,0,0,1,.29-.35.31.31,0,0,1,.35.35.32.32,0,0,1-.32.35C83.15,24.56,83,24.44,83,24.21Zm.29,1.71c0-.06,0-.1.16-.12a.11.11,0,0,1,.12.12c0,.11,0,.16-.12.16A.14.14,0,0,1,83.33,25.92ZM84,22.08a.29.29,0,0,1,.32-.32h.06c.17,0,.27.11.29.32s-.12.32-.35.32A.29.29,0,0,1,84,22.08Zm.48,4.83c0,.08,0,.12-.13.12s-.09,0-.09-.12,0-.1.09-.1S84.47,26.84,84.47,26.91ZM85,22.53a.12.12,0,0,1-.13-.13c0-.06,0-.1.13-.1s.09,0,.09.1S85,22.53,85,22.53Zm1,51.7a.35.35,0,1,1,.7,0v.06c0,.19-.12.3-.35.32S85.93,74.48,85.93,74.23Zm2.28-23.74a.94.94,0,0,1-.34-.7,1.16,1.16,0,0,1,.31-.73,1.17,1.17,0,0,1,.76-.35,1.13,1.13,0,0,1,.7.32,1,1,0,0,1,.38.73,1.08,1.08,0,0,1-.35.7,1,1,0,0,1-.73.38A1.15,1.15,0,0,1,88.21,50.49ZM89,31.89a.45.45,0,0,1-.16-.32.56.56,0,0,1,.12-.32.52.52,0,0,1,.35-.15.5.5,0,0,1,.29.12.45.45,0,0,1,.19.35.43.43,0,0,1-.16.29.44.44,0,0,1-.32.19A.37.37,0,0,1,89,31.89Zm1.17,36s-.06,0-.06-.06a.21.21,0,0,1,.06-.16.1.1,0,0,1,.1-.07.09.09,0,0,1,.06,0s.06.08.06.1a.21.21,0,0,1,0,.13.1.1,0,0,1-.09.06ZM91.9,57.72h-.07c-.12,0-.19-.07-.19-.22s.09-.22.26-.22.22.06.22.19S92,57.72,91.9,57.72Zm4.44-37.1c0-.17.1-.25.29-.25s.28.08.28.25-.08.32-.25.32A.29.29,0,0,1,96.34,20.62Zm4.89.32c0-.21.08-.32.25-.32s.32.1.32.29a.29.29,0,0,1-.32.32C101.31,21.23,101.23,21.13,101.23,20.94Z" transform="translate(-9.73 -8.78)"/><path class="cls-1" d="M74.25,39.57a.61.61,0,0,1,.67-.67c.42,0,.64.23.66.67a.62.62,0,0,1-.66.7C74.49,40.27,74.27,40,74.25,39.57ZM79,61.34c0-.19.08-.29.25-.31a.3.3,0,0,1,.32.31c0,.17-.11.26-.32.26S79,61.51,79,61.34Zm.7-31.2a.22.22,0,0,1,.25-.25c.15,0,.22.08.22.25s-.07.2-.22.23A.23.23,0,0,1,79.68,30.14ZM105,66.26l4.54,4.48-4.63-4.32a.11.11,0,0,1-.07,0,.18.18,0,0,1-.19-.16V66.2l-.12-.13c-.62.06-1.26.1-1.94.1s-1.3,0-1.94-.07l.64,1.37-.67-1.37a28,28,0,0,1-2.79-.38l-.16,8-.16-8A21.27,21.27,0,0,1,93,64.17,10.28,10.28,0,0,1,92,63.63l-7.08,4.89,6.8-5a11.73,11.73,0,0,1-2.26-1.59l1.46-1.52-2.09.22L91,60.26l.82-.85,1-1.21-4.57-1.43a.38.38,0,0,1-.16,0c-.15,0-.23,0-.25-.16L83,55.12l4.83,1.34a.23.23,0,0,1,.25-.23c.21,0,.32.1.32.29v.09L93.13,58l1-1.11a4.23,4.23,0,0,0,.95.69L90.63,53.6,95.9,58A.09.09,0,0,0,96,58a6.26,6.26,0,0,0,.89.38L91.52,48.3l5.84,10,.22-6.45a10.85,10.85,0,0,1-5.46-3.39,8.51,8.51,0,0,1-2.38-6,9.15,9.15,0,0,1,.09-1.27,9.54,9.54,0,0,1,4-6.6,14.85,14.85,0,0,1,8.7-2.48,22.26,22.26,0,0,1,9.52,2,14.37,14.37,0,0,1,3.59,2.32L111,41.44c0-.12-.61-.49-1.84-1.11a15.39,15.39,0,0,0-6.6-1.36c-3.72,0-5.71,1-6,3.11v.44A2.08,2.08,0,0,0,97.17,44q1.55,1.76,5.39,1.75,1.08,0,2.1.09a12.43,12.43,0,0,1,8.44,3.94,8.94,8.94,0,0,1,2.28,6,9.75,9.75,0,0,1-.09,1.37,8.84,8.84,0,0,1-4,6.51A13.68,13.68,0,0,1,104.75,66l.06.06h0C104.93,66.1,105,66.16,105,66.26Zm-21.33-20a.12.12,0,0,1,.13-.13c.11,0,.16,0,.16.13s-.05.13-.16.13A.12.12,0,0,1,83.64,46.3ZM85,43.19v0c0-.09,0-.13.1-.13s.12,0,.12.16v0a.08.08,0,0,1-.09.09C85.08,43.31,85,43.27,85,43.19Zm2.16,8.66h-.06a.58.58,0,0,1-.64-.63c0-.47.22-.7.67-.7s.7.22.7.67A.59.59,0,0,1,87.2,51.85Zm1.14-8.31a1.13,1.13,0,0,1,.35.76,1.22,1.22,0,0,1-1.08,1.08,1,1,0,0,1-.7-.35.93.93,0,0,1-.38-.7,1,1,0,0,1,.35-.7,1,1,0,0,1,.73-.41A1.07,1.07,0,0,1,88.34,43.54Zm-.79,21.33c.29,0,.44.13.44.41s-.13.44-.41.44a.4.4,0,0,1-.44-.41A.39.39,0,0,1,87.55,64.87Zm3,9.36H90.5a.29.29,0,0,1-.32-.29v-.09c0-.17.11-.27.32-.29h.06c.17,0,.28.11.32.32v.06C90.88,74.11,90.77,74.21,90.56,74.23Zm1.65-48.47c0-.08.05-.12.13-.12s.16,0,.16.12,0,.13-.16.13A.12.12,0,0,1,92.21,25.76Zm.29,8.7V34.4c0-.21.13-.34.38-.38a.36.36,0,0,1,.41.41c0,.29-.13.44-.41.44S92.5,34.74,92.5,34.46Zm2.13-3.3a.22.22,0,0,1,.22-.25.22.22,0,0,1,.25.25c0,.15-.08.22-.25.22A.19.19,0,0,1,94.63,31.16Zm2.15,45h-.15c-.34,0-.53-.19-.58-.57v-.16c0-.34.19-.54.58-.61h.15c.34,0,.54.2.61.61v.16C97.39,76,97.19,76.15,96.78,76.2Zm.83-24.32,0,6.51a.62.62,0,0,1,.26.06l3.2-6A16.39,16.39,0,0,1,97.61,51.88ZM98.91,59,107.77,58a3.08,3.08,0,0,0,.85-1.78V56a2.79,2.79,0,0,0-.66-1.75q-1.56-1.74-5.4-1.74-.6,0-1.17,0l-3,6.15.06.07,6.1-3.87L98.59,58.9s0,0,0,.06A1.91,1.91,0,0,1,98.91,59Zm1.3,10.34h-.06a.28.28,0,0,1-.32-.28V69c0-.19.11-.29.32-.31h.09c.15,0,.24.1.26.31v.1C100.5,69.27,100.4,69.35,100.21,69.37Zm.22,10.7a.84.84,0,0,1,1-.95h.06a.83.83,0,0,1,.92.92.89.89,0,0,1-1,1A.88.88,0,0,1,100.43,80.07Zm7.11-21.93-7,1.11.07.06a16.64,16.64,0,0,0,1.9.1C104.89,59.41,106.55,59,107.54,58.14Zm-5.87-17.36a.26.26,0,0,1,.22-.29.26.26,0,0,1,.29.29c0,.19-.07.28-.22.28S101.67,41,101.67,40.78Zm1.18-1.37v0c0,.09,0,.13-.1.13s-.13,0-.13-.16v0a.09.09,0,0,1,.1-.1A.12.12,0,0,1,102.85,39.41Zm.47-13.49h-.06q-.57,0-.6-.63a.59.59,0,0,1,.66-.67.61.61,0,0,1,.7.64C104,25.7,103.79,25.92,103.32,25.92Zm.86,42h-.06a.35.35,0,0,1-.39-.35v-.09c0-.22.12-.33.35-.35h.1c.19,0,.31.11.35.35v.06A.37.37,0,0,1,104.18,67.88Zm1.87-40.43c0-.09,0-.13.13-.13s.16,0,.16.13a.14.14,0,0,1-.16.15C106.09,27.6,106.05,27.55,106.05,27.45Zm.26,2.19c0-.11,0-.16.12-.16s.13.05.13.16,0,.12-.13.12A.11.11,0,0,1,106.31,29.64Zm1.14,50.49v.07c0,.16-.11.28-.32.34h-.06a.3.3,0,0,1-.32-.31v-.1c0-.17.11-.27.32-.32h.06C107.32,79.81,107.43,79.92,107.45,80.13ZM107,44.81c0,.08-.05.12-.13.12s-.13,0-.13-.12,0-.13.13-.13A.12.12,0,0,1,107,44.81Zm.09,10.25h.06c.13,0,.21.08.23.25v0c0,.13-.08.2-.23.23h-.06a.22.22,0,0,1-.25-.19C106.88,55.19,107,55.08,107.13,55.06Zm.22-28.38c0-.08.05-.12.13-.12s.13,0,.13.12a.13.13,0,0,1-.26,0Zm.29,50.85h-.06c-.07,0-.1,0-.1-.16v0c0-.06,0-.11.13-.13a.16.16,0,0,1,.16.13C107.77,77.46,107.72,77.53,107.64,77.53Zm.67-3.87h-.07c-.1,0-.17-.08-.19-.23a.2.2,0,0,1,.22-.22c.17,0,.26.07.26.19S108.45,73.66,108.31,73.66Zm.06-8.1h.09c.07,0,.11,0,.13.13s0,.19-.16.19h-.09c-.07,0-.1,0-.1-.13v-.09C108.24,65.6,108.28,65.56,108.37,65.56Zm.25-21.07c0-.17.08-.25.22-.25s.29.07.29.22-.08.28-.25.28S108.62,44.66,108.62,44.49Zm.48.82c0-.08,0-.12.13-.12a.11.11,0,0,1,.12.12c0,.09,0,.13-.12.13S109.1,45.4,109.1,45.31Zm.13-18.72c0-.11,0-.16.15-.16s.13.05.13.16a.12.12,0,0,1-.13.13C109.28,26.72,109.23,26.67,109.23,26.59Zm1.3,51.35c-.07.19-.18.29-.35.29a.4.4,0,0,1-.22-.07c-.19-.06-.29-.17-.29-.31a.56.56,0,0,1,.06-.23c.09-.19.2-.28.35-.28l.19,0c.19.11.29.23.29.38A.63.63,0,0,1,110.53,77.94Zm-.64-53.73a.31.31,0,0,1,.29-.35.31.31,0,0,1,.35.35.32.32,0,0,1-.32.35C110,24.56,109.89,24.44,109.89,24.21Zm.29,1.71c0-.06,0-.1.16-.12a.11.11,0,0,1,.12.12c0,.11,0,.16-.12.16A.14.14,0,0,1,110.18,25.92Zm.66-3.84a.29.29,0,0,1,.32-.32h.07c.16,0,.26.11.28.32s-.12.32-.35.32A.29.29,0,0,1,110.84,22.08Zm.48,4.83c0,.08,0,.12-.13.12s-.09,0-.09-.12,0-.1.09-.1S111.32,26.84,111.32,26.91Zm.48-4.38a.12.12,0,0,1-.13-.13c0-.06,0-.1.13-.1s.09,0,.09.1S111.86,22.53,111.8,22.53Zm1,51.7a.35.35,0,1,1,.7,0v.06c0,.19-.12.3-.35.32S112.78,74.48,112.78,74.23Zm2.29-23.74a.92.92,0,0,1-.35-.7,1.16,1.16,0,0,1,.31-.73,1.17,1.17,0,0,1,.77-.35,1.13,1.13,0,0,1,.69.32,1,1,0,0,1,.38.73,1.11,1.11,0,0,1-.34.7,1,1,0,0,1-.73.38A1.1,1.1,0,0,1,115.07,50.49Zm.76-18.6a.45.45,0,0,1-.16-.32.51.51,0,0,1,.13-.32.48.48,0,0,1,.34-.15.5.5,0,0,1,.29.12.45.45,0,0,1,.19.35.43.43,0,0,1-.16.29.44.44,0,0,1-.32.19A.37.37,0,0,1,115.83,31.89Zm1.17,36s-.06,0-.06-.06a.21.21,0,0,1,.06-.16.1.1,0,0,1,.1-.07.09.09,0,0,1,.06,0s.06.08.06.1a.21.21,0,0,1,0,.13.1.1,0,0,1-.09.06Zm1.75-10.13h-.07c-.12,0-.19-.07-.19-.22s.09-.22.26-.22.22.06.22.19S118.9,57.72,118.75,57.72Zm4.44-37.1c0-.17.1-.25.29-.25s.28.08.28.25-.08.32-.25.32A.29.29,0,0,1,123.19,20.62Zm4.89.32c0-.21.08-.32.25-.32s.32.1.32.29a.29.29,0,0,1-.32.32C128.16,21.23,128.08,21.13,128.08,20.94Z" transform="translate(-9.73 -8.78)"/><path class="cls-1" d="M110.43,52.71v.06c0,.43-.22.64-.66.64h-.07c-.4,0-.6-.22-.6-.67v-.06a.55.55,0,0,1,.63-.61C110.2,52.07,110.43,52.29,110.43,52.71Zm.07-14.06a.59.59,0,0,1-.64.63h-.06a.59.59,0,0,1-.67-.66c0-.43.2-.64.6-.64h.1A.6.6,0,0,1,110.5,38.65Zm.34,40.85a.15.15,0,0,1,.07.12.11.11,0,0,1,0,.07s-.08.06-.1.06a.23.23,0,0,1-.13,0,.1.1,0,0,1-.06-.1.49.49,0,0,1,0-.12.33.33,0,0,1,.13,0A.13.13,0,0,1,110.84,79.5Zm.07-58.15a.14.14,0,0,1,.12.13v.09c0,.07,0,.1-.09.1h-.06c-.11,0-.16-.06-.16-.19S110.8,21.35,110.91,21.35Zm.41,18.85a.48.48,0,0,1,.44.45.37.37,0,0,1-.19.32.57.57,0,0,1-.28.09.43.43,0,0,1-.32-.19.57.57,0,0,1-.09-.28.34.34,0,0,1,.22-.29A.42.42,0,0,1,111.32,40.2Zm.89-20a1.11,1.11,0,0,1,.76.38,1,1,0,0,1,.32.7.93.93,0,0,1-.38.7,1.15,1.15,0,0,1-.73.35.91.91,0,0,1-.7-.38,1,1,0,0,1-.35-.7.91.91,0,0,1,.38-.7A1.1,1.1,0,0,1,112.21,20.21Zm-.13,17.46a.09.09,0,0,1,0,.06c0,.1-.06.16-.13.16a.09.09,0,0,1-.06,0c-.11,0-.16-.1-.16-.16a.13.13,0,0,1,0-.07.3.3,0,0,1,.19-.09h0C112,37.56,112.08,37.6,112.08,37.67Zm1.11,4.44a.61.61,0,0,1,0,.16c0,.17-.13.25-.25.25l-.19,0a.33.33,0,0,1-.23-.32.28.28,0,0,1,0-.12c.06-.17.16-.26.28-.26l.16,0A.31.31,0,0,1,113.19,42.11Zm-.5-3.08V39c0-.21.14-.32.31-.32h.1a.32.32,0,0,1,.28.35v.06a.34.34,0,0,1-.35.32H113A.32.32,0,0,1,112.69,39Zm.63,20.66a.6.6,0,0,1-.22-.41.54.54,0,0,1,.19-.41.61.61,0,0,1,.44-.26.62.62,0,0,1,.42.19.55.55,0,0,1,0,.86.64.64,0,0,1-.45.22A.65.65,0,0,1,113.32,59.69Zm.76,7.18a.83.83,0,0,1-.19-.51,1.06,1.06,0,0,1,.41-.76,1,1,0,0,1,.7-.35,1,1,0,0,1,.73.38.91.91,0,0,1,0,1.46,1.12,1.12,0,0,1-.73.35.66.66,0,0,1-.32-.1v.19a.55.55,0,0,1-.57.6H114q-.51,0-.57-.57v-.09a.56.56,0,0,1,.53-.6Zm.35-35.62a.35.35,0,0,1,0,.16.18.18,0,0,1-.19.16.31.31,0,0,1-.13,0,.23.23,0,0,1-.16-.22v-.13c0-.1.11-.16.19-.16a.28.28,0,0,1,.13,0C114.37,31.09,114.43,31.15,114.43,31.25Zm.86-8.37a.35.35,0,0,1-.16-.07.19.19,0,0,1-.1-.16.4.4,0,0,1,.07-.16.18.18,0,0,1,.16-.09.55.55,0,0,1,.19.06.23.23,0,0,1,.09.19.29.29,0,0,1-.06.16A.27.27,0,0,1,115.29,22.88Zm.06,56.84a.37.37,0,0,1-.22-.32.43.43,0,0,1,.09-.25.44.44,0,0,1,.32-.22.5.5,0,0,1,.29.12.38.38,0,0,1,.19.29.5.5,0,0,1-.1.28.41.41,0,0,1-.35.16A.56.56,0,0,1,115.35,79.72Zm.38-26.38.19,0c.15,0,.22.12.22.25a.89.89,0,0,1,0,.19.26.26,0,0,1-.28.22l-.16,0a.32.32,0,0,1-.22-.32.27.27,0,0,1,0-.12C115.54,53.42,115.63,53.34,115.73,53.34Zm0-2.47v0c0-.11.08-.16.16-.16s0,0,.06.06.13.06.13.13a.09.09,0,0,1,0,.06c0,.07,0,.1-.1.1a.27.27,0,0,1-.12,0A.13.13,0,0,1,115.73,50.87Zm1.4,21.71a.45.45,0,0,1,.35.19.47.47,0,0,1,.16.32.57.57,0,0,1-.16.31.53.53,0,0,1-.35.13.45.45,0,0,1-.32-.16.59.59,0,0,1-.16-.32.54.54,0,0,1,.19-.34A.46.46,0,0,1,117.13,72.58ZM116.72,34v-.1a.17.17,0,0,1,.19-.16H117a.21.21,0,0,1,.16.19V34c0,.12-.11.19-.19.19h-.06C116.78,34.19,116.72,34.12,116.72,34ZM140.3,39a.58.58,0,0,1,0,.19c0,.46-.22.7-.67.7a.63.63,0,0,1-.7-.67.48.48,0,0,1,0-.22H125v9h14.28v4.32h.1c.12,0,.2.08.22.25v0c0,.13-.08.2-.22.22h-.1v2H128.21a.35.35,0,0,1,.06.19.31.31,0,0,1,0,.13c-.07.17-.15.25-.26.25l-.19,0a.3.3,0,0,1-.22-.29.33.33,0,0,1,0-.15.13.13,0,0,1,0-.1h-1.36a.68.68,0,0,1-.06.29.55.55,0,0,1-.54.47,1.1,1.1,0,0,1-.32-.06.65.65,0,0,1-.35-.25v4.22h17v6.76H118.21v-34H142V39ZM120,26.11a.6.6,0,0,1,.64.67.62.62,0,0,1-.67.67c-.46,0-.7-.25-.7-.67A.64.64,0,0,1,120,26.11Zm-.25,41.68A.37.37,0,0,1,120,68a.47.47,0,0,1,.09.28.35.35,0,0,1-.19.29.57.57,0,0,1-.25.06.38.38,0,0,1-.32-.16.52.52,0,0,1-.06-.22.39.39,0,0,1,.19-.35A.4.4,0,0,1,119.7,67.79Zm1.81-41.39a.12.12,0,0,1,.09.13v.06a.12.12,0,0,1-.12.09.14.14,0,0,1-.13-.15v0C121.37,26.43,121.42,26.4,121.51,26.4Zm.54-.35H122c-.12,0-.19-.11-.19-.19v-.1c0-.14.1-.22.22-.22h.1a.26.26,0,0,1,.16.22v.1C122.22,26,122.15,26.05,122.05,26.05Zm2.54-2.41a1,1,0,0,1,0,.22q-.16.51-.54.51a1.15,1.15,0,0,1-.26,0c-.36-.07-.54-.26-.54-.58a.68.68,0,0,1,0-.19.58.58,0,0,1,.58-.5l.25,0Q124.59,23.19,124.59,23.64ZM124,26.53v.06q-.06.09-.12.09h0q-.09,0-.09-.09v-.06c0-.07,0-.1.09-.1h0C123.91,26.45,124,26.48,124,26.53Zm.19-6.1v0a.11.11,0,0,1,.1-.06h.06a.05.05,0,0,1,.06.06v.06c0,.09,0,.13-.09.13h0C124.17,20.57,124.14,20.52,124.14,20.43Zm1.15-.47a.12.12,0,0,1,.09,0c.13,0,.19.09.19.16a.23.23,0,0,1,0,.09.18.18,0,0,1-.19.16h-.06a.21.21,0,0,1-.16-.19v-.06C125.17,20,125.22,20,125.29,20Zm.28,21.8h.06a.17.17,0,0,1,.1.16V42a.18.18,0,0,1-.16.1h-.06a.18.18,0,0,1-.13-.16v-.07A.28.28,0,0,1,125.57,41.76Zm1.18,1.71a.53.53,0,0,1,0,.16.33.33,0,0,1-.31.26.2.2,0,0,1-.13,0,.29.29,0,0,1-.22-.28.55.55,0,0,1,0-.16.25.25,0,0,1,.25-.22l.19,0C126.67,43.26,126.75,43.35,126.75,43.47Zm.15-.89-.15,0a.31.31,0,0,1-.23-.28.69.69,0,0,1,0-.22c0-.15.13-.23.26-.23l.22,0c.17,0,.25.14.25.29a.63.63,0,0,1,0,.19A.34.34,0,0,1,126.9,42.58Zm.7,13a1,1,0,0,1,0,.19.45.45,0,0,1-.38.25L127,56a.35.35,0,0,1-.28-.35.61.61,0,0,1,0-.16.35.35,0,0,1,.35-.28.29.29,0,0,1,.15.06C127.5,55.34,127.6,55.45,127.6,55.6Zm-.35-11.08v0a.09.09,0,0,1-.09.07h0a.1.1,0,0,1-.07-.1v0a.11.11,0,0,1,.1-.06h0A.1.1,0,0,1,127.25,44.52ZM128,56a.12.12,0,0,1-.06.1c0,.06,0,.09-.1.09a.12.12,0,0,1-.09,0c-.09,0-.13-.06-.13-.13a.09.09,0,0,1,0-.06.14.14,0,0,1,.13-.1h.06C127.93,55.9,128,56,128,56Zm1-39.86c0,.23-.14.37-.41.41a.41.41,0,0,1-.16,0c-.24,0-.37-.14-.42-.41a.38.38,0,0,1,0-.16c0-.23.14-.37.42-.41a.33.33,0,0,1,.15,0c.24,0,.37.13.42.41A.35.35,0,0,1,129,16.15Zm-.7,1.9a.13.13,0,0,1,.13.1v.06a.18.18,0,0,1-.1.16h0c-.08,0-.14-.05-.16-.16v0c0-.07,0-.11.13-.13Zm1,53.92c.3,0,.56.2.8.58a1.23,1.23,0,0,1,.19.6.89.89,0,0,1-.54.76,1.14,1.14,0,0,1-.6.19,1,1,0,0,1-.8-.54,1.63,1.63,0,0,1-.16-.63.94.94,0,0,1,.54-.76A1.12,1.12,0,0,1,129.28,72Zm.7-52.71c0,.46-.24.7-.66.7s-.7-.26-.7-.7a.62.62,0,0,1,.7-.67A.6.6,0,0,1,130,19.26ZM128.9,13a.15.15,0,0,1-.12-.07.19.19,0,0,1-.13-.19.29.29,0,0,1,.09-.16c0-.06.09-.09.13-.09a.18.18,0,0,1,.16.09.22.22,0,0,1,.1.16.22.22,0,0,1-.07.16A.19.19,0,0,1,128.9,13Zm1.81,0V13c.07-.25.19-.38.38-.38h.07c.25,0,.38.17.38.38V13c0,.25-.17.38-.38.38h-.07C130.84,13.38,130.71,13.25,130.71,13Zm.45,63.06h-.07a.28.28,0,0,1-.31-.29v-.09c0-.17.1-.26.31-.29h.07c.17,0,.27.11.31.32v.06C131.47,76,131.37,76.08,131.16,76.1Zm.5-17.07v0s0-.06.1-.06h0a.05.05,0,0,1,.06.06c0,.09,0,.13-.09.13S131.66,59.09,131.66,59Zm.61-40.92a.31.31,0,0,1-.13,0,.23.23,0,0,1,0-.09.11.11,0,0,1,.06-.1.21.21,0,0,1,.13,0s0,0,.09.06,0,0,0,.07a.11.11,0,0,1-.07.09A.12.12,0,0,1,132.27,18.11Zm.35,39h-.13c-.19,0-.3-.11-.32-.35v-.09c0-.17.11-.28.32-.32h.06a.36.36,0,0,1,.38.32v.06C132.93,57,132.83,57.13,132.62,57.15Zm.19,1.4h-.07a.32.32,0,0,1-.35-.32v-.06c0-.17.11-.29.32-.35h.07c.16,0,.28.11.34.32v.06A.31.31,0,0,1,132.81,58.55Zm.35-43.93v.07c0,.21-.16.31-.35.31h-.07c-.21,0-.31-.12-.31-.31v-.07a.33.33,0,0,1,.35-.31h.06C133.05,14.33,133.16,14.43,133.16,14.62Zm.66-2.79a.59.59,0,0,1-.63-.67.58.58,0,0,1,.66-.66c.43,0,.64.23.64.63v.07C134.49,11.62,134.27,11.83,133.82,11.83Zm.1,45.13h0c-.07,0-.11-.05-.13-.16v-.06c0-.06,0-.1.13-.1H134c.06,0,.11,0,.13.13S134,57,133.92,57Zm.63-37.77v-.06a.21.21,0,0,1,.19-.16h.07a.22.22,0,0,1,.16.19v.1a.19.19,0,0,1-.2.16h-.06A.25.25,0,0,1,134.55,19.19Zm.95,3.94h-.06c-.38,0-.58-.21-.6-.64a.58.58,0,0,1,.66-.66c.45,0,.68.21.7.63S136,23.13,135.5,23.13Zm4,51.73h-.16q-.51,0-.57-.57v-.16q0-.51.57-.6h.16c.34,0,.54.2.61.6v.16C140.08,74.63,139.87,74.82,139.47,74.86ZM139.22,42c0,.09,0,.13-.13.13A.12.12,0,0,1,139,42c0-.08,0-.12.13-.12S139.22,41.93,139.22,42Zm1.59-14.82a.9.9,0,0,1-.35-.7,1.13,1.13,0,0,1,1.08-1.08,1.13,1.13,0,0,1,.69.32,1,1,0,0,1,.38.73,1.08,1.08,0,0,1-.34.7,1,1,0,0,1-.73.38A1.1,1.1,0,0,1,140.81,27.19Zm0,14.51c0-.17.07-.26.22-.26s.28.08.28.22-.08.29-.25.29A.22.22,0,0,1,140.81,41.7Zm.47.82a.12.12,0,0,1,.13-.13.12.12,0,0,1,.13.13.12.12,0,0,1-.13.13C141.32,42.65,141.28,42.61,141.28,42.52Zm1.3,25.14h-.06c-.11,0-.17-.08-.19-.22s.07-.23.22-.23.25.07.25.19S142.73,67.66,142.58,67.66Zm.86-25h-.1c-.42,0-.63-.22-.63-.67s.2-.63.6-.63h.1q.63,0,.63.6v.07Q144,42.68,143.44,42.68ZM144,45.6a.6.6,0,0,1,.64.67A.6.6,0,0,1,144,47c-.45,0-.67-.22-.67-.6v-.09C143.31,45.82,143.54,45.6,144,45.6Zm0,5.3c0-.15.08-.23.25-.25s.23.08.23.25-.08.22-.23.22S144,51.05,144,50.9Zm2.35-30.34a.91.91,0,0,1,.12.44,1,1,0,0,1-.34.73,1.1,1.1,0,0,1-.73.35,1,1,0,0,1-.73-.38.9.9,0,0,1-.35-.7,1.06,1.06,0,0,1,.41-.76,1.67,1.67,0,0,1,.57-.32c0-.38.22-.58.67-.6a.59.59,0,0,1,.66.67A.6.6,0,0,1,146.33,20.56Zm.76,51.54H147a.28.28,0,0,1-.32-.28v-.07c0-.19.1-.29.32-.31h.09c.15,0,.23.1.26.31v.1C147.38,72,147.28,72.08,147.09,72.1Zm0-3.87a.31.31,0,0,1,.35-.35.31.31,0,0,1,.35.35v.06c0,.19-.12.3-.35.32S147.06,68.48,147.06,68.23ZM148,29.1a.47.47,0,0,1-.16-.32.49.49,0,0,1,.13-.32.41.41,0,0,1,.63,0,.45.45,0,0,1,.19.35.69.69,0,0,1-.47.47A.39.39,0,0,1,148,29.1Zm.41,18c.21,0,.32.1.32.29s-.11.28-.32.28-.25-.1-.25-.32A.22.22,0,0,1,148.42,47.06Zm.1-31.23v-.1q.06-.57.57-.57h.09a.57.57,0,0,1,.58.61v.09a.54.54,0,0,1-.58.54h-.12A.53.53,0,0,1,148.52,15.83Zm.66,49.23a.1.1,0,0,1-.06-.07.25.25,0,0,1,.06-.16.12.12,0,0,1,.1-.06.09.09,0,0,1,.06,0,.22.22,0,0,1,.07.1c0,.06,0,.1,0,.12a.09.09,0,0,1-.09.07Zm1-46.12c0-.19.08-.29.25-.29s.32.09.32.26a.29.29,0,0,1-.32.32C150.22,19.23,150.14,19.13,150.14,18.94Zm.79,36h-.06c-.13,0-.19-.07-.19-.22s.08-.22.25-.22.22.06.22.19S151.08,54.93,150.93,54.93Zm.57-29q-.63,0-.63-.6v-.06c0-.43.2-.64.6-.64h.06c.45,0,.67.2.67.6v.07C152.2,25.71,152,25.92,151.5,25.92Zm-.25,36.37a.54.54,0,0,1-.32-.47.78.78,0,0,1,.09-.32.55.55,0,0,1,.45-.32.93.93,0,0,1,.38.1.54.54,0,0,1,.29.44,1,1,0,0,1-.1.38.58.58,0,0,1-.48.29A.65.65,0,0,1,151.25,62.29Zm1.46,6.23c-.09,0-.13-.1-.13-.16v0a.15.15,0,0,1,.16-.12h0a.13.13,0,0,1,.1.12v.07c0,.08-.07.13-.13.13Zm1-.58a.61.61,0,0,1-.69-.66c0-.43.23-.65.69-.67s.65.22.67.67S154.2,67.92,153.75,67.94Zm1.15-37.76v.09c0,.4-.21.6-.64.6h-.09c-.41,0-.61-.21-.61-.63s.22-.7.64-.7h.09C154.7,29.54,154.9,29.75,154.9,30.18Zm5.49.79a.5.5,0,0,1,.28-.83.5.5,0,0,1,.35.16.43.43,0,0,1,.16.29.49.49,0,0,1-.16.35.41.41,0,0,1-.63,0Z" transform="translate(-9.73 -8.78)"/><path class="cls-1" d="M129.32,38.4a.69.69,0,0,1,0,.22q-.15.51-.54.51a.77.77,0,0,1-.25,0Q128,39,128,38.52a.68.68,0,0,1,0-.19q.13-.51.57-.51a.78.78,0,0,1,.26,0Q129.32,38,129.32,38.4Zm-.7-9a.19.19,0,0,1-.13-.06.4.4,0,0,1-.09-.22.19.19,0,0,1,.06-.13.18.18,0,0,1,.16-.09.38.38,0,0,1,.19.06.28.28,0,0,1,.09.19.35.35,0,0,1-.06.16A.31.31,0,0,1,128.62,29.41Zm.25,5.78v0a.11.11,0,0,1,.1-.07H129s.06,0,.06.07v.06c0,.09-.05.13-.09.13h0A.15.15,0,0,1,128.87,35.19Zm1.14-.48a.11.11,0,0,1,.1,0c.13,0,.19.09.19.15a.22.22,0,0,1,0,.1.18.18,0,0,1-.19.16H130a.21.21,0,0,1-.15-.19V34.9C129.9,34.78,130,34.71,130,34.71Zm6.29-3.11c-.07,0-.12-.05-.16-.16v0c0-.06,0-.1.13-.12h0a.14.14,0,0,1,.13.09v.06a.19.19,0,0,1-.1.16Zm4.51,19.65a.92.92,0,0,1-.07.32.54.54,0,0,1-.54.47,1.16,1.16,0,0,1-.32-.06.59.59,0,0,1-.44-.57.68.68,0,0,1,.06-.29.59.59,0,0,1,.58-.47.61.61,0,0,1,.25.06Q140.81,50.91,140.81,51.25Zm-.58-13.36h-.06c-.38,0-.58-.21-.6-.64a.58.58,0,0,1,.66-.66c.45,0,.68.21.7.63S140.7,37.89,140.23,37.89Zm-.12.41h.06a.2.2,0,0,1,.1.16v.06a.19.19,0,0,1-.16.1H140a.19.19,0,0,1-.12-.16V38.4A.24.24,0,0,1,140.11,38.3Zm14.18,16.41-.6-.1.6.07-1.23-2.86-.13,7.27-.16-7.9-1.33-3.11-9.52,6.53,9.36-6.88-.22-.54-5.75.63L151,47l-.25-.64-10.38-3.27,10.19,2.83-.64-1.46-3-2.67,2.92,2.41-5.21-12.09h7.87l1.21,3.14a.77.77,0,0,1,.54-.19h.06c.38,0,.58.21.61.64a.61.61,0,0,1-.67.7h-.1l1.75,4.5L159,35l-3,6.19L157.06,44l1.77-1.11-1.74,1.21.73,1.9,3-.35L166,32.11h7.87l-8.22,19.14a.21.21,0,0,1-.1.19l-.89,2.06,3-5-3.69,7,.1.09L168.26,52l-4,3.59,9.11-2.57L164.23,56V56l5.23.76-5.26-.6s0,0,0,0l2.13,1.59.1,0a1.13,1.13,0,0,1,.19.19l5.52,4.09-5.43-3.74a2.22,2.22,0,0,1-.09.28.58.58,0,0,1-.48.29.72.72,0,0,1-.32-.1.53.53,0,0,1-.31-.47.78.78,0,0,1,.09-.32,1.19,1.19,0,0,1,.25-.28L164,56.52l-.19.06a.58.58,0,0,0-.13.1l-.19,8.92-.13-8.8-.6,1.21-3.52,8.22-1.88-4.35-1.84,1.72,1.81-1.81ZM140.84,30.56h.06c.21,0,.34.12.38.38V31c0,.19-.13.31-.38.35h-.06c-.19,0-.32-.12-.38-.35v-.06C140.46,30.73,140.58,30.6,140.84,30.56Zm.44,9.45a.5.5,0,0,1,0,.16.33.33,0,0,1-.32.26.27.27,0,0,1-.12,0c-.15-.07-.23-.16-.23-.29a.55.55,0,0,1,0-.16c0-.15.13-.22.26-.22l.19,0A.25.25,0,0,1,141.28,40Zm.16-.88a.37.37,0,0,1-.16,0,.29.29,0,0,1-.22-.28.69.69,0,0,1,0-.22c0-.15.13-.23.25-.23a.7.7,0,0,1,.23,0c.17,0,.25.13.25.28a.63.63,0,0,1,0,.19A.35.35,0,0,1,141.44,39.13Zm.7,13a1,1,0,0,1,0,.19.46.46,0,0,1-.38.25l-.16,0a.36.36,0,0,1-.29-.35.61.61,0,0,1,0-.16.36.36,0,0,1,.35-.28.32.32,0,0,1,.16.06C142,51.88,142.14,52,142.14,52.14Zm-.35-11.08v0a.1.1,0,0,1-.1.07h0a.11.11,0,0,1-.06-.1v0a.1.1,0,0,1,.09-.06h0A.1.1,0,0,1,141.79,41.06Zm1,10.41a.31.31,0,0,1,0,.13c-.06.17-.14.25-.25.25a.63.63,0,0,1-.19,0,.3.3,0,0,1-.22-.28.35.35,0,0,1,0-.16c0-.17.13-.26.25-.26a.44.44,0,0,1,.19,0A.33.33,0,0,1,142.8,51.47Zm-.28,1.08a.11.11,0,0,1-.06.1c0,.06-.06.09-.1.09a.12.12,0,0,1-.09,0c-.09,0-.13-.06-.13-.13a.09.09,0,0,1,0-.06.13.13,0,0,1,.13-.1h.06C142.47,52.45,142.52,52.49,142.52,52.55Zm1.3,16a1,1,0,0,1,.79.57,1.14,1.14,0,0,1,.19.6.89.89,0,0,1-.54.76,1.14,1.14,0,0,1-.6.19,1,1,0,0,1-.79-.54,1.47,1.47,0,0,1-.16-.63.94.94,0,0,1,.54-.76A1.1,1.1,0,0,1,143.82,68.52Zm1.87,4.12h-.06a.28.28,0,0,1-.32-.28v-.1c0-.17.11-.26.32-.29h.06c.17,0,.28.11.32.32v.07C146,72.52,145.9,72.62,145.69,72.64Zm.51-17.07v0s0-.06.1-.06h0a.05.05,0,0,1,.06.06c0,.09,0,.13-.09.13S146.2,55.63,146.2,55.57Zm1-1.88H147c-.19,0-.3-.11-.32-.35v-.09c0-.17.1-.28.32-.32h.06a.36.36,0,0,1,.38.32v.06A.33.33,0,0,1,147.15,53.69Zm.19,1.4h-.06a.32.32,0,0,1-.35-.32v-.06c0-.17.11-.29.32-.35h.06c.17,0,.29.11.35.32v.06A.32.32,0,0,1,147.34,55.09Zm1.11-1.59h0c-.06,0-.1,0-.12-.16v-.06q0-.09.12-.09h.07q.09,0,.12.12C148.61,53.44,148.56,53.5,148.45,53.5Zm2.45,8.13h-.07a.34.34,0,0,1-.38-.35v-.1c0-.21.12-.32.35-.35h.1c.19,0,.3.12.35.35v.07A.37.37,0,0,1,150.9,61.63Zm.44-1.59c0-.13.06-.19.16-.19h.06c.09,0,.13,0,.13.16v.06c0,.07-.05.11-.16.13A.18.18,0,0,1,151.34,60ZM154,71.4h-.16q-.51,0-.57-.57v-.16q0-.51.57-.6H154q.51,0,.6.6v.16Q154.61,71.34,154,71.4ZM153.34,32c0-.17.08-.25.22-.25s.23.07.23.22-.08.22-.23.22A.2.2,0,0,1,153.34,32Zm1.21.57h0c-.07,0-.1,0-.1-.09s0-.13.13-.13.16,0,.16.13S154.65,32.52,154.55,32.52Zm.54,26.79h.09c.07,0,.11,0,.13.13s-.05.19-.16.19h-.09c-.07,0-.1,0-.1-.13v-.09C155,59.34,155,59.31,155.09,59.31Zm.25-35.58A.94.94,0,0,1,155,23a1.2,1.2,0,0,1,.32-.73,1,1,0,0,1,1.46,0,1,1,0,0,1,.38.73,1.1,1.1,0,0,1-.35.7,1,1,0,0,1-.73.38A1.1,1.1,0,0,1,155.34,23.73Zm0,14.51c0-.17.08-.26.22-.26s.29.08.29.23-.09.28-.25.28S155.34,38.41,155.34,38.24Zm.48.82a.11.11,0,0,1,.12-.12c.09,0,.13,0,.13.12s0,.13-.13.13S155.82,39.15,155.82,39.06Zm1.3,25.14h-.06c-.11,0-.17-.07-.2-.22a.21.21,0,0,1,.23-.23c.17,0,.25.07.25.2S157.27,64.2,157.12,64.2Zm2.51-15.68-.89-1.78.95,1.75,1.05-2.67-2.8.45.8,2ZM158.29,8.78h.07a.34.34,0,0,1,.35.29v.09a.31.31,0,0,1-.29.32h-.1A.3.3,0,0,1,158,9.2V9.1C158,8.93,158.1,8.83,158.29,8.78Zm.23,38.66c0-.15.08-.23.25-.25s.22.08.22.25a.19.19,0,0,1-.22.22C158.6,47.66,158.52,47.59,158.52,47.44Zm1.14,1.14-.89-.19.48,1.24Zm2,20.06h-.07a.29.29,0,0,1-.32-.28v-.07c0-.19.11-.29.32-.31h.1c.15,0,.23.1.25.31v.1C161.91,68.54,161.82,68.62,161.63,68.64Zm0-3.87a.31.31,0,0,1,.35-.35.31.31,0,0,1,.35.35v.06c0,.19-.11.3-.35.32S161.59,65,161.59,64.77Zm1-39.13a.45.45,0,0,1-.16-.32.48.48,0,0,1,.47-.48.52.52,0,0,1,.29.13.45.45,0,0,1,.19.35.41.41,0,0,1-.16.28.44.44,0,0,1-.32.2A.4.4,0,0,1,162.55,25.64Zm1.17,36a.1.1,0,0,1-.06-.07.25.25,0,0,1,.06-.16.1.1,0,0,1,.1-.06.09.09,0,0,1,.06,0,.18.18,0,0,1,.06.1.17.17,0,0,1,0,.12.09.09,0,0,1-.09.07Zm3.52,3.46c-.08,0-.12-.1-.12-.16v0a.14.14,0,0,1,.15-.13h0a.12.12,0,0,1,.09.13v.06c0,.08-.06.13-.13.13Zm1-.58a.62.62,0,0,1-.7-.66c0-.43.23-.65.7-.67a.61.61,0,0,1,.67.67C169,64.24,168.73,64.46,168.29,64.48Zm1.14-37.76v.09q0,.6-.63.6h-.1q-.6,0-.6-.63c0-.47.21-.7.63-.7h.1C169.23,26.08,169.43,26.29,169.43,26.72Zm-.76,44c0-.17.1-.26.29-.26s.28.09.28.26-.08.31-.25.31A.28.28,0,0,1,168.67,70.74Zm3.21,8.19v-.07q0-.57.66-.6a.67.67,0,0,1,0,1.33C172.11,79.59,171.88,79.37,171.88,78.93Zm.5-3.65a.37.37,0,0,1,.42-.42h.06c.23,0,.35.14.35.42v.06c0,.23-.14.35-.41.35A.37.37,0,0,1,172.38,75.28Zm1.43-30.09a.62.62,0,0,1-.22-.41.58.58,0,0,1,.19-.42.61.61,0,0,1,.45-.25.58.58,0,0,1,.41.19.64.64,0,0,1,.22.44.66.66,0,0,1-.19.42.68.68,0,0,1-.44.22A.71.71,0,0,1,173.81,45.19Zm.64,7.17h.12c.34,0,.53.19.58.57V53a.56.56,0,0,1-.58.6h-.09q-.51,0-.57-.57V53A.57.57,0,0,1,174.45,52.36Zm.47-24.85a.48.48,0,0,1-.19-.35.5.5,0,0,1,.16-.29.46.46,0,0,1,.32-.19.51.51,0,0,1,.35.16.47.47,0,0,1,.16.29.55.55,0,0,1-.51.51A.52.52,0,0,1,174.92,27.51Zm.77,28.09a.17.17,0,0,1,.06.12.09.09,0,0,1,0,.07c-.05,0-.08.06-.1.06a.17.17,0,0,1-.12,0,.1.1,0,0,1-.07-.1.49.49,0,0,1,0-.12l.13,0A.17.17,0,0,1,175.69,55.6Zm1,22.28c0-.19.09-.29.26-.29s.31.09.31.26a.27.27,0,0,1-.31.31C176.82,78.16,176.73,78.07,176.73,77.88Zm1.18-16.22c0-.21.08-.32.25-.32s.32.1.32.29a.29.29,0,0,1-.32.32C178,62,177.91,61.85,177.91,61.66Zm2.28-5.84a.36.36,0,0,1-.22-.32.38.38,0,0,1,.1-.25.41.41,0,0,1,.31-.22.5.5,0,0,1,.29.12.35.35,0,0,1,.19.29.5.5,0,0,1-.1.28.41.41,0,0,1-.35.16A.56.56,0,0,1,180.19,55.82ZM180,58.49c0-.43.23-.65.7-.67a.61.61,0,0,1,.67.67.64.64,0,0,1-.67.69A.65.65,0,0,1,180,58.49Zm8-1.72a.67.67,0,0,1,1.33,0,.62.62,0,0,1-.67.7C188.21,57.47,188,57.24,188,56.77Z" transform="translate(-9.73 -8.78)"/><path class="cls-1" d="M168.67,52.71v.06c0,.43-.22.64-.67.64h-.06c-.4,0-.6-.22-.6-.67v-.06a.55.55,0,0,1,.63-.61C168.44,52.07,168.67,52.29,168.67,52.71Zm.06-14.06a.57.57,0,0,1-.63.63H168a.59.59,0,0,1-.67-.66c0-.43.2-.64.6-.64h.1A.59.59,0,0,1,168.73,38.65Zm.35,40.85a.15.15,0,0,1,.07.12.11.11,0,0,1,0,.07c-.05,0-.08.06-.1.06a.23.23,0,0,1-.13,0,.1.1,0,0,1-.06-.1.49.49,0,0,1,0-.12.33.33,0,0,1,.13,0A.13.13,0,0,1,169.08,79.5Zm.07-58.15a.14.14,0,0,1,.12.13v.09c0,.07,0,.1-.09.1h-.06c-.11,0-.16-.06-.16-.19S169,21.35,169.15,21.35Zm.41,18.85a.48.48,0,0,1,.44.45.37.37,0,0,1-.19.32.57.57,0,0,1-.28.09.43.43,0,0,1-.32-.19.57.57,0,0,1-.09-.28.34.34,0,0,1,.22-.29A.42.42,0,0,1,169.56,40.2Zm.89-20a1.11,1.11,0,0,1,.76.38,1,1,0,0,1,.32.7.93.93,0,0,1-.38.7,1.15,1.15,0,0,1-.73.35.91.91,0,0,1-.7-.38,1,1,0,0,1-.35-.7.91.91,0,0,1,.38-.7A1.1,1.1,0,0,1,170.45,20.21Zm-.13,17.46a.09.09,0,0,1,0,.06c0,.1-.06.16-.13.16a.09.09,0,0,1-.06,0c-.11,0-.16-.1-.16-.16a.13.13,0,0,1,0-.07.3.3,0,0,1,.19-.09h0C170.28,37.56,170.32,37.6,170.32,37.67Zm1.11,4.44a.61.61,0,0,1,0,.16c0,.17-.13.25-.25.25l-.19,0a.33.33,0,0,1-.23-.32.28.28,0,0,1,0-.12c.06-.17.15-.26.28-.26l.16,0A.31.31,0,0,1,171.43,42.11ZM170.92,39V39c.05-.21.15-.32.32-.32h.1a.32.32,0,0,1,.28.35v.06a.34.34,0,0,1-.35.32h-.06A.33.33,0,0,1,170.92,39Zm.64,20.66a.6.6,0,0,1-.22-.41.54.54,0,0,1,.19-.41.61.61,0,0,1,.44-.26.58.58,0,0,1,.41.19.66.66,0,0,1,.23.45.69.69,0,0,1-.19.41.64.64,0,0,1-.45.22A.65.65,0,0,1,171.56,59.69Zm.76,7.18a.83.83,0,0,1-.19-.51,1.06,1.06,0,0,1,.41-.76,1,1,0,0,1,.7-.35,1,1,0,0,1,.73.38.91.91,0,0,1,0,1.46,1.12,1.12,0,0,1-.73.35.66.66,0,0,1-.32-.1v.19a.55.55,0,0,1-.57.6h-.09c-.34,0-.53-.19-.58-.57v-.09a.56.56,0,0,1,.54-.6Zm.35-35.62a.35.35,0,0,1,0,.16.18.18,0,0,1-.19.16.31.31,0,0,1-.13,0,.23.23,0,0,1-.16-.22v-.13c.05-.1.11-.16.19-.16a.28.28,0,0,1,.13,0C172.61,31.09,172.67,31.15,172.67,31.25Zm.86-8.37a.35.35,0,0,1-.16-.07.19.19,0,0,1-.1-.16.3.3,0,0,1,.07-.16.18.18,0,0,1,.16-.09.55.55,0,0,1,.19.06.23.23,0,0,1,.09.19.29.29,0,0,1-.06.16A.27.27,0,0,1,173.53,22.88Zm.06,56.84a.37.37,0,0,1-.22-.32.43.43,0,0,1,.09-.25.44.44,0,0,1,.32-.22.5.5,0,0,1,.29.12.38.38,0,0,1,.19.29.5.5,0,0,1-.1.28.41.41,0,0,1-.35.16A.56.56,0,0,1,173.59,79.72ZM174,53.34l.19,0c.15,0,.22.12.22.25a.89.89,0,0,1,0,.19.26.26,0,0,1-.28.22l-.16,0a.32.32,0,0,1-.22-.32.27.27,0,0,1,0-.12C173.78,53.42,173.87,53.34,174,53.34Zm0-2.47v0c0-.11.08-.16.16-.16s0,0,.06.06.13.06.13.13a.09.09,0,0,1,0,.06c0,.07,0,.1-.1.1l-.12,0A.13.13,0,0,1,174,50.87Zm1.4,21.71a.45.45,0,0,1,.35.19.47.47,0,0,1,.16.32.57.57,0,0,1-.16.31.53.53,0,0,1-.35.13.45.45,0,0,1-.32-.16.59.59,0,0,1-.16-.32.54.54,0,0,1,.19-.34A.46.46,0,0,1,175.37,72.58ZM175,34v-.1a.17.17,0,0,1,.19-.16h.09a.21.21,0,0,1,.16.19V34c0,.12-.11.19-.19.19h-.06C175,34.19,175,34.12,175,34ZM198.54,39a.58.58,0,0,1,0,.19c0,.46-.22.7-.67.7a.63.63,0,0,1-.7-.67.48.48,0,0,1,0-.22h-14v9h14.28v4.32h.1c.12,0,.2.08.22.25v0c0,.13-.08.2-.22.22h-.1v2H186.44a.3.3,0,0,1,.07.19.31.31,0,0,1,0,.13c-.07.17-.15.25-.26.25l-.19,0a.3.3,0,0,1-.22-.29.33.33,0,0,1,0-.15.13.13,0,0,1,0-.1h-1.36a.68.68,0,0,1-.06.29.55.55,0,0,1-.54.47,1.1,1.1,0,0,1-.32-.06.65.65,0,0,1-.35-.25v4.22h17v6.76H176.45v-34h23.83V39ZM178.19,26.11a.6.6,0,0,1,.64.67.62.62,0,0,1-.67.67c-.46,0-.7-.25-.7-.67A.64.64,0,0,1,178.19,26.11Zm-.25,41.68a.37.37,0,0,1,.32.19.47.47,0,0,1,.09.28.35.35,0,0,1-.19.29.57.57,0,0,1-.25.06.38.38,0,0,1-.32-.16.52.52,0,0,1-.06-.22.39.39,0,0,1,.19-.35A.4.4,0,0,1,177.94,67.79Zm1.81-41.39a.12.12,0,0,1,.09.13v.06a.12.12,0,0,1-.12.09.14.14,0,0,1-.13-.15v0C179.61,26.43,179.66,26.4,179.75,26.4Zm.54-.35h-.1c-.12,0-.19-.11-.19-.19v-.1c0-.14.1-.22.22-.22h.1a.28.28,0,0,1,.16.22v.1C180.46,26,180.39,26.05,180.29,26.05Zm2.54-2.41a.69.69,0,0,1,0,.22c-.1.34-.28.51-.53.51a1.15,1.15,0,0,1-.26,0c-.36-.07-.54-.26-.54-.58a.68.68,0,0,1,0-.19.57.57,0,0,1,.57-.5,1.15,1.15,0,0,1,.26,0Q182.83,23.19,182.83,23.64Zm-.64,2.89v.06c0,.06-.08.09-.13.09h0q-.09,0-.09-.09v-.06c0-.07.05-.1.09-.1h0C182.15,26.45,182.19,26.48,182.19,26.53Zm.19-6.1v0a.11.11,0,0,1,.1-.06h.06a.05.05,0,0,1,.06.06v.06c0,.09,0,.13-.09.13h0C182.41,20.57,182.38,20.52,182.38,20.43Zm1.14-.47a.13.13,0,0,1,.1,0c.13,0,.19.09.19.16a.23.23,0,0,1,0,.09.18.18,0,0,1-.19.16h-.07a.21.21,0,0,1-.15-.19v-.06C183.41,20,183.46,20,183.52,20Zm.29,21.8h.06a.17.17,0,0,1,.1.16V42a.18.18,0,0,1-.16.1h-.06a.18.18,0,0,1-.13-.16v-.07A.28.28,0,0,1,183.81,41.76ZM185,43.47a.5.5,0,0,1,0,.16.33.33,0,0,1-.31.26.2.2,0,0,1-.13,0,.29.29,0,0,1-.22-.28.55.55,0,0,1,0-.16.25.25,0,0,1,.25-.22l.19,0A.25.25,0,0,1,185,43.47Zm.16-.89-.16,0a.31.31,0,0,1-.22-.28.69.69,0,0,1,0-.22c.05-.15.13-.23.26-.23l.22,0c.17,0,.25.14.25.29a.63.63,0,0,1,0,.19A.34.34,0,0,1,185.14,42.58Zm.7,13a1,1,0,0,1,0,.19.45.45,0,0,1-.38.25l-.16,0a.36.36,0,0,1-.29-.35.73.73,0,0,1,0-.16.35.35,0,0,1,.35-.28.29.29,0,0,1,.15.06C185.74,55.34,185.84,55.45,185.84,55.6Zm-.35-11.08v0a.09.09,0,0,1-.09.07h0a.1.1,0,0,1-.07-.1v0a.1.1,0,0,1,.1-.06h0A.1.1,0,0,1,185.49,44.52ZM186.22,56a.12.12,0,0,1-.06.1c0,.06,0,.09-.1.09a.12.12,0,0,1-.09,0c-.09,0-.13-.06-.13-.13a.09.09,0,0,1,0-.06.14.14,0,0,1,.13-.1h.06C186.17,55.9,186.22,56,186.22,56Zm1-39.86c0,.23-.14.37-.41.41a.41.41,0,0,1-.16,0c-.24,0-.37-.14-.42-.41a.38.38,0,0,1,0-.16c0-.23.14-.37.42-.41a.33.33,0,0,1,.15,0c.24,0,.37.13.42.41A.35.35,0,0,1,187.24,16.15Zm-.7,1.9a.13.13,0,0,1,.13.1v.06a.18.18,0,0,1-.1.16h0c-.08,0-.14-.05-.16-.16v0c0-.07,0-.11.13-.13Zm1,53.92c.3,0,.56.2.8.58a1.23,1.23,0,0,1,.19.6.89.89,0,0,1-.54.76,1.14,1.14,0,0,1-.6.19,1,1,0,0,1-.8-.54,1.63,1.63,0,0,1-.16-.63.94.94,0,0,1,.54-.76A1.12,1.12,0,0,1,187.52,72Zm.7-52.71c0,.46-.24.7-.66.7s-.7-.26-.7-.7a.62.62,0,0,1,.7-.67A.6.6,0,0,1,188.22,19.26ZM187.14,13A.15.15,0,0,1,187,13a.19.19,0,0,1-.13-.19.29.29,0,0,1,.09-.16c.05-.06.09-.09.13-.09a.19.19,0,0,1,.16.09.22.22,0,0,1,.1.16.22.22,0,0,1-.07.16A.19.19,0,0,1,187.14,13ZM189,13V13c.07-.25.19-.38.38-.38h.07c.25,0,.38.17.38.38V13c-.05.25-.17.38-.38.38h-.07C189.08,13.38,189,13.25,189,13Zm.45,63.06h-.07a.28.28,0,0,1-.31-.29v-.09c0-.17.1-.26.31-.29h.07c.17,0,.27.11.31.32v.06C189.71,76,189.61,76.08,189.4,76.1ZM189.9,59v0s0-.06.1-.06h0a.05.05,0,0,1,.06.06c0,.09,0,.13-.09.13S189.9,59.09,189.9,59Zm.61-40.92a.28.28,0,0,1-.13,0,.23.23,0,0,1,0-.09.11.11,0,0,1,.06-.1.21.21,0,0,1,.13,0s.05,0,.09.06,0,0,0,.07a.11.11,0,0,1-.07.09A.12.12,0,0,1,190.51,18.11Zm.35,39h-.13c-.19,0-.3-.11-.32-.35v-.09c0-.17.11-.28.32-.32h.06a.36.36,0,0,1,.38.32v.06C191.17,57,191.07,57.13,190.86,57.15Zm.19,1.4H191a.32.32,0,0,1-.35-.32v-.06c0-.17.11-.29.32-.35H191c.16,0,.28.11.34.32v.06A.31.31,0,0,1,191.05,58.55Zm.35-43.93v.07c-.05.21-.16.31-.35.31H191c-.21,0-.31-.12-.31-.31v-.07a.33.33,0,0,1,.35-.31h.06C191.29,14.33,191.4,14.43,191.4,14.62Zm.66-2.79a.59.59,0,0,1-.63-.67.58.58,0,0,1,.66-.66c.43,0,.64.23.64.63v.07C192.73,11.62,192.51,11.83,192.06,11.83Zm.1,45.13h0c-.07,0-.11-.05-.13-.16v-.06c0-.06,0-.1.13-.1h.06c.06,0,.1,0,.13.13S192.26,57,192.16,57Zm.63-37.77v-.06A.21.21,0,0,1,193,19h.07a.22.22,0,0,1,.16.19v.1a.19.19,0,0,1-.2.16H193A.25.25,0,0,1,192.79,19.19Zm1,3.94h-.06c-.38,0-.58-.21-.6-.64a.58.58,0,0,1,.66-.66c.45,0,.68.21.7.63S194.21,23.13,193.74,23.13Zm4,51.73h-.16q-.51,0-.57-.57v-.16q0-.51.57-.6h.16q.51,0,.6.6v.16Q198.31,74.8,197.71,74.86ZM197.46,42c0,.09,0,.13-.13.13a.12.12,0,0,1-.13-.13c0-.08.05-.12.13-.12S197.46,41.93,197.46,42ZM199,27.19a.92.92,0,0,1-.34-.7,1.13,1.13,0,0,1,1.07-1.08,1.13,1.13,0,0,1,.7.32,1,1,0,0,1,.38.73,1.06,1.06,0,0,1-.35.7,1,1,0,0,1-.73.38A1.15,1.15,0,0,1,199,27.19Zm0,14.51c0-.17.08-.26.23-.26s.28.08.28.22-.08.29-.25.29S199,41.87,199,41.7Zm.48.82a.12.12,0,0,1,.13-.13c.08,0,.12,0,.12.13s0,.13-.12.13S199.52,42.61,199.52,42.52Zm1.3,25.14h-.06c-.11,0-.17-.08-.19-.22s.07-.23.22-.23.25.07.25.19S201,67.66,200.82,67.66Zm.86-25h-.1c-.42,0-.63-.22-.63-.67s.2-.63.6-.63h.1q.63,0,.63.6v.07Q202.28,42.68,201.68,42.68Zm.57,2.92a.6.6,0,0,1,.64.67.6.6,0,0,1-.67.69c-.45,0-.67-.22-.67-.6v-.09C201.55,45.82,201.78,45.6,202.25,45.6Zm0,5.3c0-.15.08-.23.25-.25s.22.08.22.25a.19.19,0,0,1-.22.22C202.3,51.12,202.22,51.05,202.22,50.9Zm2.35-30.34a.91.91,0,0,1,.12.44,1,1,0,0,1-.34.73,1.1,1.1,0,0,1-.73.35,1,1,0,0,1-.73-.38.9.9,0,0,1-.35-.7,1.06,1.06,0,0,1,.41-.76,1.67,1.67,0,0,1,.57-.32c0-.38.22-.58.67-.6a.59.59,0,0,1,.66.67A.6.6,0,0,1,204.57,20.56Zm.76,51.54h-.06a.28.28,0,0,1-.32-.28v-.07c0-.19.1-.29.32-.31h.09c.15,0,.23.1.25.31v.1C205.61,72,205.52,72.08,205.33,72.1Zm0-3.87a.31.31,0,0,1,.35-.35.31.31,0,0,1,.35.35v.06c0,.19-.12.3-.35.32S205.3,68.48,205.3,68.23Zm.95-39.13a.47.47,0,0,1-.16-.32.49.49,0,0,1,.13-.32.41.41,0,0,1,.63,0,.45.45,0,0,1,.19.35.69.69,0,0,1-.47.47A.39.39,0,0,1,206.25,29.1Zm.41,18c.21,0,.32.1.32.29s-.11.28-.32.28-.25-.1-.25-.32A.22.22,0,0,1,206.66,47.06Zm.1-31.23v-.1q.06-.57.57-.57h.09a.57.57,0,0,1,.58.61v.09a.54.54,0,0,1-.58.54h-.12A.53.53,0,0,1,206.76,15.83Zm.66,49.23a.1.1,0,0,1-.06-.07.25.25,0,0,1,.06-.16.11.11,0,0,1,.1-.06l.06,0a.22.22,0,0,1,.07.1c0,.06,0,.1,0,.12a.09.09,0,0,1-.09.07Zm1-46.12c0-.19.08-.29.25-.29s.32.09.32.26a.29.29,0,0,1-.32.32C208.46,19.23,208.38,19.13,208.38,18.94Zm.79,36h-.06c-.13,0-.19-.07-.19-.22s.08-.22.25-.22.22.06.22.19S209.32,54.93,209.17,54.93Zm.57-29q-.63,0-.63-.6v-.06c0-.43.2-.64.6-.64h.06c.45,0,.67.2.67.6v.07C210.44,25.71,210.21,25.92,209.74,25.92Zm-.25,36.37a.53.53,0,0,1-.32-.47.78.78,0,0,1,.09-.32.55.55,0,0,1,.45-.32.93.93,0,0,1,.38.1.54.54,0,0,1,.29.44,1,1,0,0,1-.1.38.58.58,0,0,1-.48.29A.65.65,0,0,1,209.49,62.29ZM211,68.52c-.09,0-.13-.1-.13-.16v0a.15.15,0,0,1,.16-.12h0a.13.13,0,0,1,.1.12v.07c0,.08-.07.13-.13.13Zm1-.58a.61.61,0,0,1-.69-.66c0-.43.23-.65.69-.67s.65.22.67.67S212.44,67.92,212,67.94Zm1.15-37.76v.09c0,.4-.22.6-.64.6h-.09c-.41,0-.61-.21-.61-.63s.22-.7.64-.7h.09C212.94,29.54,213.14,29.75,213.14,30.18Zm5.49.79a.5.5,0,0,1,.28-.83.5.5,0,0,1,.35.16.43.43,0,0,1,.16.29.49.49,0,0,1-.16.35.41.41,0,0,1-.63,0Z" transform="translate(-9.73 -8.78)"/><path class="cls-1" d="M205.46,34.62l17.07,15.87V32.17h6.89v34l-16.6-15.43s-.06.06-.13.06-.12,0-.12-.15a.1.1,0,0,1,.06-.1l-3-2.79V66.17h-2.28a.74.74,0,0,1,.09.38v.06c0,.4-.22.61-.66.64s-.67-.24-.67-.7a.65.65,0,0,1,.1-.38h-3.37V35.06l-15,10.38,15-11.14s0,0,0-.06l-10,1.11,9.9-1.43v-.13l-17.26-5.42,17.23,4.82-7.58-6.76,6.47,5.4a.2.2,0,0,1,.22-.19h.07a.17.17,0,0,1,.19.19.24.24,0,0,1-.16.25l.95.79v-.7l-6.6-12.5,7.46,12.79.28-9.3.07,9.4a1.16,1.16,0,0,1,.32.06l8.72-16.22-8.15,16.47c.06.07.1.1.12.1l0,0L212.76,28l-7.53,5.17.1.19,17.26-2.09L205.49,34a1.59,1.59,0,0,1,0,.29L216.34,37ZM194.38,48a1.06,1.06,0,0,1,.35.73,1.15,1.15,0,0,1-.32.7,1.11,1.11,0,0,1-.76.38,1.08,1.08,0,0,1-.7-.35,1,1,0,0,1-.38-.7,1.15,1.15,0,0,1,.35-.73,1.09,1.09,0,0,1,.73-.38A1.12,1.12,0,0,1,194.38,48Zm3.24,20.6c0,.42-.24.65-.7.67a.67.67,0,1,1,0-1.34A.63.63,0,0,1,197.62,68.61Zm3.84-44.37a.56.56,0,0,1,.31.48,1,1,0,0,1-.09.35.49.49,0,0,1-.45.28,1.08,1.08,0,0,1-.38-.09.5.5,0,0,1-.28-.45,1.08,1.08,0,0,1,.09-.38.56.56,0,0,1,.48-.28A.82.82,0,0,1,201.46,24.24Zm1.11,43.35c0,.2-.09.29-.26.29s-.31-.08-.31-.25a.28.28,0,0,1,.31-.32C202.48,67.31,202.57,67.4,202.57,67.59Zm3.17,6.83c0,.21-.08.32-.25.32s-.32-.1-.32-.29.11-.29.32-.29S205.74,74.25,205.74,74.42Zm1.18-4.22a.37.37,0,0,1-.42.41h-.06c-.23,0-.35-.14-.35-.41v-.07c0-.23.14-.34.41-.34S206.92,69.92,206.92,70.2Zm1.81-34.53c0,.12-.08.2-.23.22s-.25-.08-.25-.22.08-.26.25-.26S208.73,35.5,208.73,35.67Zm1.9,39.07a.22.22,0,0,1-.25.25c-.22,0-.32-.08-.32-.25s.08-.32.25-.32A.28.28,0,0,1,210.63,74.74Zm2.73-52a.09.09,0,0,1,0,.06.31.31,0,0,1,0,.13.19.19,0,0,1-.13.06l-.06,0s-.07-.07-.07-.09a.13.13,0,0,1,0-.1.1.1,0,0,1,.09-.06Zm0,11.52h-.06c-.13,0-.2-.08-.23-.25v0c0-.12.08-.2.23-.22h.06a.22.22,0,0,1,.25.19C213.64,34.14,213.56,34.25,213.39,34.27Zm2.06-14.73a.3.3,0,0,1-.35.35c-.23,0-.34-.11-.34-.35v-.06c0-.17.11-.26.34-.29A.31.31,0,0,1,215.45,19.54Zm-.16,61.1h-.06a.33.33,0,0,1-.35-.29v-.06a.34.34,0,0,1,.32-.35h.06c.17,0,.28.11.32.32v.06A.31.31,0,0,1,215.29,80.64Zm.13-65h.1c.17,0,.26.1.28.29v.09a.27.27,0,0,1-.28.29h-.13c-.15,0-.23-.1-.25-.29v-.13C215.14,15.78,215.23,15.69,215.42,15.67Zm1.78,47.74h.06c.38,0,.58.21.61.63a.6.6,0,0,1-.67.67.63.63,0,0,1-.7-.64C216.5,63.63,216.73,63.41,217.2,63.41Zm1.59-33.81h0c.06,0,.1,0,.12.13v.06c0,.07,0,.1-.12.1h-.07c-.06,0-.1,0-.12-.13A.14.14,0,0,1,218.79,29.6ZM219.9,28H220a.31.31,0,0,1,.35.31v.07c0,.19-.11.3-.32.35h-.06c-.17,0-.28-.11-.32-.32v-.07A.32.32,0,0,1,219.9,28Zm0-7.88H220c.11,0,.17.08.19.23a.2.2,0,0,1-.22.22c-.17,0-.25-.06-.25-.19S219.78,20.11,219.93,20.11Zm.19,9.27h.09c.19,0,.3.12.32.35v.1c0,.19-.1.3-.32.35h-.06a.37.37,0,0,1-.38-.35v-.07A.34.34,0,0,1,220.12,29.38Zm.92-1.84v0c0,.05,0,.07-.1.07h0s-.06,0-.06-.07,0-.16.09-.16S221,27.46,221,27.54ZM222,25h-.06a.15.15,0,0,1-.16-.12c0-.13.06-.2.19-.2H222c.07,0,.1.06.1.16v.07C222.09,25,222,25,222,25Zm1,52.08h-.06a.36.36,0,0,1-.38-.34v-.07c0-.21.13-.34.38-.38h.06c.19,0,.32.13.38.38v.07C223.32,76.93,223.2,77,222.94,77.08Zm1.34-49.22h.06c.11,0,.16.07.16.22a.2.2,0,0,1-.22.22c-.17,0-.26-.06-.26-.19S224.11,27.86,224.28,27.86Zm.7,48.78a.27.27,0,0,1-.07-.16.19.19,0,0,1,.1-.16.18.18,0,0,1,.16-.09.25.25,0,0,1,.15.09.3.3,0,0,1,.07.16.26.26,0,0,1-.1.19.31.31,0,0,1-.16.07A.19.19,0,0,1,225,76.64Zm.09,3c0-.28.18-.42.41-.42a.34.34,0,0,1,.16,0c.28,0,.41.18.41.41a.41.41,0,0,1,0,.16c0,.27-.18.41-.41.41a.38.38,0,0,1-.16,0c-.27,0-.41-.18-.41-.41A.35.35,0,0,1,225.07,79.69Zm.64-55.39a.14.14,0,0,1-.16.16h-.07a.11.11,0,0,1-.12-.12v-.07a.16.16,0,0,1,.15-.16C225.62,24.11,225.68,24.18,225.71,24.3Zm.44-1.58h.06c.24,0,.36.1.38.31v.1c0,.21-.11.33-.35.35h-.09c-.19,0-.31-.12-.35-.35v-.06C225.8,22.88,225.92,22.76,226.15,22.72Zm2,49.35a.36.36,0,0,1,.35-.29.43.43,0,0,1,.22.07c.19.08.29.19.29.32a.88.88,0,0,1-.07.25.34.34,0,0,1-.35.25l-.19,0a.4.4,0,0,1-.28-.38A.63.63,0,0,1,228.15,72.07Zm1.9-30q0,.15-.12.15c-.09,0-.13-.05-.13-.15s0-.13.13-.13S230.05,42,230.05,42.05Zm1.27,20.63a.83.83,0,0,1,.29.57.87.87,0,0,1-.26.57.81.81,0,0,1-.57.28.94.94,0,0,1-.57-.25.82.82,0,0,1-.32-.6.74.74,0,0,1,.29-.54.8.8,0,0,1,.57-.32A.79.79,0,0,1,231.32,62.68Zm.32-34.44v.06c0,.24-.14.36-.41.38s-.42-.13-.42-.41.14-.44.42-.44A.36.36,0,0,1,231.64,28.24Zm-.54,10.89c0,.08,0,.12-.13.12a.11.11,0,0,1-.12-.12c0-.11,0-.16.12-.16S231.1,39,231.1,39.13Zm.25,2.15c0,.09,0,.13-.12.13s-.16,0-.16-.13.05-.12.16-.12A.11.11,0,0,1,231.35,41.28Zm.54-4.34a.11.11,0,0,1-.12.12c-.09,0-.13,0-.13-.12s0-.13.13-.13S231.89,36.85,231.89,36.94Zm.8-4.13c0,.21-.1.32-.29.32a.29.29,0,0,1-.32-.32.26.26,0,0,1,.29-.29C232.58,32.52,232.69,32.62,232.69,32.81Zm.63,4.67h.07q.6,0,.63.66a.59.59,0,0,1-.67.67c-.44,0-.66-.21-.66-.64S232.9,37.48,233.32,37.48Zm3.56-10.83a.38.38,0,0,1-.13-.22v-.06c0-.19.11-.3.32-.32h.09c.15,0,.26.09.32.28a.3.3,0,0,1-.1.23.23.23,0,0,1,.16.25v.1c0,.14-.09.23-.28.25h-.07a.3.3,0,0,1-.34-.29A1,1,0,0,1,236.88,26.65Zm.85.67c0,.08,0,.13-.12.13a.12.12,0,0,1-.13-.13c0-.11,0-.16.13-.16S237.73,27.21,237.73,27.32Zm5.05-1.62c-.3,0-.44-.13-.44-.38s.13-.44.41-.44a.39.39,0,0,1,.44.41C243.19,25.54,243.06,25.68,242.78,25.7Z" transform="translate(-9.73 -8.78)"/></svg>